%TF.GenerationSoftware,KiCad,Pcbnew,7.0.6-rc2-8-gf9e9ed53f9*%
%TF.CreationDate,2023-06-28T16:03:34-05:00*%
%TF.ProjectId,Tek P6860 Adapter v.2,54656b20-5036-4383-9630-204164617074,rev?*%
%TF.SameCoordinates,Original*%
%TF.FileFunction,Paste,Top*%
%TF.FilePolarity,Positive*%
%FSLAX46Y46*%
G04 Gerber Fmt 4.6, Leading zero omitted, Abs format (unit mm)*
G04 Created by KiCad (PCBNEW 7.0.6-rc2-8-gf9e9ed53f9) date 2023-06-28 16:03:34*
%MOMM*%
%LPD*%
G01*
G04 APERTURE LIST*
%ADD10R,0.810000X0.410000*%
%ADD11R,1.120000X2.440000*%
G04 APERTURE END LIST*
D10*
%TO.C,J4*%
X29677000Y-46302000D03*
X29677000Y-45387000D03*
X29677000Y-44482000D03*
X29677000Y-42642000D03*
X29677000Y-41732000D03*
X29677000Y-40822000D03*
X29677000Y-38977000D03*
X29677000Y-38072000D03*
X29677000Y-37162000D03*
X29677000Y-35322000D03*
X29677000Y-34407000D03*
X29677000Y-33502000D03*
X29677000Y-31667000D03*
X29677000Y-30757000D03*
X29677000Y-29847000D03*
X32807000Y-43962000D03*
X32807000Y-43052000D03*
X32812000Y-42142000D03*
X32812000Y-40302000D03*
X32812000Y-39392000D03*
X32812000Y-38482000D03*
X32812000Y-36647000D03*
X32812000Y-35742000D03*
X32812000Y-34832000D03*
X32807000Y-32992000D03*
X32807000Y-32082000D03*
X32812000Y-31172000D03*
%TD*%
D11*
%TO.C,SW1*%
X41376600Y-70511000D03*
X38836600Y-70511000D03*
X36296600Y-70511000D03*
X33756600Y-70511000D03*
X31216600Y-70511000D03*
X28676600Y-70511000D03*
X26136600Y-70511000D03*
X23596600Y-70511000D03*
X21056600Y-70511000D03*
X21056600Y-79121000D03*
X23596600Y-79121000D03*
X26136600Y-79121000D03*
X28676600Y-79121000D03*
X31216600Y-79121000D03*
X33756600Y-79121000D03*
X36296600Y-79121000D03*
X38836600Y-79121000D03*
X41376600Y-79121000D03*
%TD*%
M02*
