%TF.GenerationSoftware,KiCad,Pcbnew,7.0.5-94-gd77180d9b5*%
%TF.CreationDate,2023-06-13T20:52:57-05:00*%
%TF.ProjectId,Tek P6860 Adapter v.2,54656b20-5036-4383-9630-204164617074,rev?*%
%TF.SameCoordinates,Original*%
%TF.FileFunction,Drillmap*%
%TF.FilePolarity,Positive*%
%FSLAX45Y45*%
G04 Gerber Fmt 4.5, Leading zero omitted, Abs format (unit mm)*
G04 Created by KiCad (PCBNEW 7.0.5-94-gd77180d9b5) date 2023-06-13 20:52:57*
%MOMM*%
%LPD*%
G01*
G04 APERTURE LIST*
%ADD10C,0.100000*%
%ADD11C,0.200000*%
%ADD12C,0.040000*%
G04 APERTURE END LIST*
D10*
X1524000Y-1524000D02*
X5181600Y-1524000D01*
X5181600Y-8458200D01*
X1524000Y-8458200D01*
X1524000Y-1524000D01*
D11*
D12*
X2066180Y-4353880D02*
X2106180Y-4393880D01*
X2106180Y-4353880D02*
X2066180Y-4393880D01*
X2171180Y-4353880D02*
X2211180Y-4393880D01*
X2211180Y-4353880D02*
X2171180Y-4393880D01*
X2322720Y-2494600D02*
X2362720Y-2534600D01*
X2362720Y-2494600D02*
X2322720Y-2534600D01*
X2322720Y-3157540D02*
X2362720Y-3197540D01*
X2362720Y-3157540D02*
X2322720Y-3197540D01*
X2427720Y-2494600D02*
X2467720Y-2534600D01*
X2467720Y-2494600D02*
X2427720Y-2534600D01*
X2427720Y-3157540D02*
X2467720Y-3197540D01*
X2467720Y-3157540D02*
X2427720Y-3197540D01*
X2495440Y-3548700D02*
X2535440Y-3588700D01*
X2535440Y-3548700D02*
X2495440Y-3588700D01*
X2600440Y-3548700D02*
X2640440Y-3588700D01*
X2640440Y-3548700D02*
X2600440Y-3588700D01*
X2804480Y-3920750D02*
X2844480Y-3960750D01*
X2844480Y-3920750D02*
X2804480Y-3960750D01*
X3055940Y-3055940D02*
X3095940Y-3095940D01*
X3095940Y-3055940D02*
X3055940Y-3095940D01*
X3055940Y-3421700D02*
X3095940Y-3461700D01*
X3095940Y-3421700D02*
X3055940Y-3461700D01*
X3055940Y-3787460D02*
X3095940Y-3827460D01*
X3095940Y-3787460D02*
X3055940Y-3827460D01*
X3055940Y-4153220D02*
X3095940Y-4193220D01*
X3095940Y-4153220D02*
X3055940Y-4193220D01*
X3055940Y-4518980D02*
X3095940Y-4558980D01*
X3095940Y-4518980D02*
X3055940Y-4558980D01*
X3149920Y-3188020D02*
X3189920Y-3228020D01*
X3189920Y-3188020D02*
X3149920Y-3228020D01*
X3152460Y-3553780D02*
X3192460Y-3593780D01*
X3192460Y-3553780D02*
X3152460Y-3593780D01*
X3152460Y-3919540D02*
X3192460Y-3959540D01*
X3192460Y-3919540D02*
X3152460Y-3959540D01*
X3152460Y-4285300D02*
X3192460Y-4325300D01*
X3192460Y-4285300D02*
X3152460Y-4325300D01*
X3370900Y-4124250D02*
X3410900Y-4164250D01*
X3410900Y-4124250D02*
X3370900Y-4164250D01*
X3454720Y-4376740D02*
X3494720Y-4416740D01*
X3494720Y-4376740D02*
X3454720Y-4416740D01*
X3574100Y-3642680D02*
X3614100Y-3682680D01*
X3614100Y-3642680D02*
X3574100Y-3682680D01*
X3584260Y-4447860D02*
X3624260Y-4487860D01*
X3624260Y-4447860D02*
X3584260Y-4487860D01*
X3787460Y-5715320D02*
X3827460Y-5755320D01*
X3827460Y-5715320D02*
X3787460Y-5755320D01*
X3787460Y-5822000D02*
X3827460Y-5862000D01*
X3827460Y-5822000D02*
X3787460Y-5862000D01*
X3812860Y-3355660D02*
X3852860Y-3395660D01*
X3852860Y-3355660D02*
X3812860Y-3395660D01*
X3883980Y-3209250D02*
X3923980Y-3249250D01*
X3923980Y-3209250D02*
X3883980Y-3249250D01*
X3932240Y-2804480D02*
X3972240Y-2844480D01*
X3972240Y-2804480D02*
X3932240Y-2844480D01*
X3937320Y-1997200D02*
X3977320Y-2037200D01*
X3977320Y-1997200D02*
X3937320Y-2037200D01*
X3937320Y-2102200D02*
X3977320Y-2142200D01*
X3977320Y-2102200D02*
X3937320Y-2142200D01*
X3991670Y-4612960D02*
X4031670Y-4652960D01*
X4031670Y-4612960D02*
X3991670Y-4652960D01*
X4003360Y-6037900D02*
X4043360Y-6077900D01*
X4043360Y-6037900D02*
X4003360Y-6077900D01*
X4008440Y-5715320D02*
X4048440Y-5755320D01*
X4048440Y-5715320D02*
X4008440Y-5755320D01*
X4018600Y-4376740D02*
X4058600Y-4416740D01*
X4058600Y-4376740D02*
X4018600Y-4416740D01*
X4028760Y-2885760D02*
X4068760Y-2925760D01*
X4068760Y-2885760D02*
X4028760Y-2925760D01*
X4033840Y-3360740D02*
X4073840Y-3400740D01*
X4073840Y-3360740D02*
X4033840Y-3400740D01*
X4056700Y-5213240D02*
X4096700Y-5253240D01*
X4096700Y-5213240D02*
X4056700Y-5253240D01*
X4056700Y-5318240D02*
X4096700Y-5358240D01*
X4096700Y-5318240D02*
X4056700Y-5358240D01*
X4122740Y-4557080D02*
X4162740Y-4597080D01*
X4162740Y-4557080D02*
X4122740Y-4597080D01*
D10*
X2158200Y-2870200D02*
G75*
G03*
X2158200Y-2870200I-50000J0D01*
G01*
X2158200Y-3124200D02*
G75*
G03*
X2158200Y-3124200I-50000J0D01*
G01*
X2158200Y-6680200D02*
G75*
G03*
X2158200Y-6680200I-50000J0D01*
G01*
X2412200Y-6680200D02*
G75*
G03*
X2412200Y-6680200I-50000J0D01*
G01*
X2666200Y-6680200D02*
G75*
G03*
X2666200Y-6680200I-50000J0D01*
G01*
X2920200Y-6680200D02*
G75*
G03*
X2920200Y-6680200I-50000J0D01*
G01*
X3174200Y-6680200D02*
G75*
G03*
X3174200Y-6680200I-50000J0D01*
G01*
X3428200Y-6680200D02*
G75*
G03*
X3428200Y-6680200I-50000J0D01*
G01*
X3682200Y-6680200D02*
G75*
G03*
X3682200Y-6680200I-50000J0D01*
G01*
X3936200Y-6680200D02*
G75*
G03*
X3936200Y-6680200I-50000J0D01*
G01*
X4190200Y-6680200D02*
G75*
G03*
X4190200Y-6680200I-50000J0D01*
G01*
X4444200Y-1942700D02*
G75*
G03*
X4444200Y-1942700I-50000J0D01*
G01*
X4444200Y-2196700D02*
G75*
G03*
X4444200Y-2196700I-50000J0D01*
G01*
X4444200Y-2450700D02*
G75*
G03*
X4444200Y-2450700I-50000J0D01*
G01*
X4444200Y-2704700D02*
G75*
G03*
X4444200Y-2704700I-50000J0D01*
G01*
X4444200Y-2958700D02*
G75*
G03*
X4444200Y-2958700I-50000J0D01*
G01*
X4444200Y-3212700D02*
G75*
G03*
X4444200Y-3212700I-50000J0D01*
G01*
X4444200Y-3466700D02*
G75*
G03*
X4444200Y-3466700I-50000J0D01*
G01*
X4444200Y-3720700D02*
G75*
G03*
X4444200Y-3720700I-50000J0D01*
G01*
X4444200Y-4142740D02*
G75*
G03*
X4444200Y-4142740I-50000J0D01*
G01*
X4444200Y-4396740D02*
G75*
G03*
X4444200Y-4396740I-50000J0D01*
G01*
X4444200Y-4650740D02*
G75*
G03*
X4444200Y-4650740I-50000J0D01*
G01*
X4444200Y-4904740D02*
G75*
G03*
X4444200Y-4904740I-50000J0D01*
G01*
X4444200Y-5158740D02*
G75*
G03*
X4444200Y-5158740I-50000J0D01*
G01*
X4444200Y-5412740D02*
G75*
G03*
X4444200Y-5412740I-50000J0D01*
G01*
X4444200Y-5666740D02*
G75*
G03*
X4444200Y-5666740I-50000J0D01*
G01*
X4444200Y-5920740D02*
G75*
G03*
X4444200Y-5920740I-50000J0D01*
G01*
D11*
X1779777Y-8774684D02*
X1779777Y-8574684D01*
X1779777Y-8574684D02*
X1827396Y-8574684D01*
X1827396Y-8574684D02*
X1855967Y-8584208D01*
X1855967Y-8584208D02*
X1875015Y-8603255D01*
X1875015Y-8603255D02*
X1884539Y-8622303D01*
X1884539Y-8622303D02*
X1894062Y-8660398D01*
X1894062Y-8660398D02*
X1894062Y-8688970D01*
X1894062Y-8688970D02*
X1884539Y-8727065D01*
X1884539Y-8727065D02*
X1875015Y-8746112D01*
X1875015Y-8746112D02*
X1855967Y-8765160D01*
X1855967Y-8765160D02*
X1827396Y-8774684D01*
X1827396Y-8774684D02*
X1779777Y-8774684D01*
X1979777Y-8774684D02*
X1979777Y-8641350D01*
X1979777Y-8679446D02*
X1989301Y-8660398D01*
X1989301Y-8660398D02*
X1998824Y-8650874D01*
X1998824Y-8650874D02*
X2017872Y-8641350D01*
X2017872Y-8641350D02*
X2036920Y-8641350D01*
X2103586Y-8774684D02*
X2103586Y-8641350D01*
X2103586Y-8574684D02*
X2094062Y-8584208D01*
X2094062Y-8584208D02*
X2103586Y-8593731D01*
X2103586Y-8593731D02*
X2113110Y-8584208D01*
X2113110Y-8584208D02*
X2103586Y-8574684D01*
X2103586Y-8574684D02*
X2103586Y-8593731D01*
X2227396Y-8774684D02*
X2208348Y-8765160D01*
X2208348Y-8765160D02*
X2198824Y-8746112D01*
X2198824Y-8746112D02*
X2198824Y-8574684D01*
X2332158Y-8774684D02*
X2313110Y-8765160D01*
X2313110Y-8765160D02*
X2303586Y-8746112D01*
X2303586Y-8746112D02*
X2303586Y-8574684D01*
X2560729Y-8774684D02*
X2560729Y-8574684D01*
X2560729Y-8574684D02*
X2627396Y-8717541D01*
X2627396Y-8717541D02*
X2694063Y-8574684D01*
X2694063Y-8574684D02*
X2694063Y-8774684D01*
X2875015Y-8774684D02*
X2875015Y-8669922D01*
X2875015Y-8669922D02*
X2865491Y-8650874D01*
X2865491Y-8650874D02*
X2846443Y-8641350D01*
X2846443Y-8641350D02*
X2808348Y-8641350D01*
X2808348Y-8641350D02*
X2789301Y-8650874D01*
X2875015Y-8765160D02*
X2855967Y-8774684D01*
X2855967Y-8774684D02*
X2808348Y-8774684D01*
X2808348Y-8774684D02*
X2789301Y-8765160D01*
X2789301Y-8765160D02*
X2779777Y-8746112D01*
X2779777Y-8746112D02*
X2779777Y-8727065D01*
X2779777Y-8727065D02*
X2789301Y-8708017D01*
X2789301Y-8708017D02*
X2808348Y-8698493D01*
X2808348Y-8698493D02*
X2855967Y-8698493D01*
X2855967Y-8698493D02*
X2875015Y-8688970D01*
X2970253Y-8641350D02*
X2970253Y-8841350D01*
X2970253Y-8650874D02*
X2989301Y-8641350D01*
X2989301Y-8641350D02*
X3027396Y-8641350D01*
X3027396Y-8641350D02*
X3046443Y-8650874D01*
X3046443Y-8650874D02*
X3055967Y-8660398D01*
X3055967Y-8660398D02*
X3065491Y-8679446D01*
X3065491Y-8679446D02*
X3065491Y-8736589D01*
X3065491Y-8736589D02*
X3055967Y-8755636D01*
X3055967Y-8755636D02*
X3046443Y-8765160D01*
X3046443Y-8765160D02*
X3027396Y-8774684D01*
X3027396Y-8774684D02*
X2989301Y-8774684D01*
X2989301Y-8774684D02*
X2970253Y-8765160D01*
X3151205Y-8755636D02*
X3160729Y-8765160D01*
X3160729Y-8765160D02*
X3151205Y-8774684D01*
X3151205Y-8774684D02*
X3141682Y-8765160D01*
X3141682Y-8765160D02*
X3151205Y-8755636D01*
X3151205Y-8755636D02*
X3151205Y-8774684D01*
X3151205Y-8650874D02*
X3160729Y-8660398D01*
X3160729Y-8660398D02*
X3151205Y-8669922D01*
X3151205Y-8669922D02*
X3141682Y-8660398D01*
X3141682Y-8660398D02*
X3151205Y-8650874D01*
X3151205Y-8650874D02*
X3151205Y-8669922D01*
D12*
X1479000Y-9083200D02*
X1519000Y-9123200D01*
X1519000Y-9083200D02*
X1479000Y-9123200D01*
D11*
X1817872Y-8994684D02*
X1836920Y-8994684D01*
X1836920Y-8994684D02*
X1855967Y-9004208D01*
X1855967Y-9004208D02*
X1865491Y-9013731D01*
X1865491Y-9013731D02*
X1875015Y-9032779D01*
X1875015Y-9032779D02*
X1884539Y-9070874D01*
X1884539Y-9070874D02*
X1884539Y-9118493D01*
X1884539Y-9118493D02*
X1875015Y-9156589D01*
X1875015Y-9156589D02*
X1865491Y-9175636D01*
X1865491Y-9175636D02*
X1855967Y-9185160D01*
X1855967Y-9185160D02*
X1836920Y-9194684D01*
X1836920Y-9194684D02*
X1817872Y-9194684D01*
X1817872Y-9194684D02*
X1798824Y-9185160D01*
X1798824Y-9185160D02*
X1789301Y-9175636D01*
X1789301Y-9175636D02*
X1779777Y-9156589D01*
X1779777Y-9156589D02*
X1770253Y-9118493D01*
X1770253Y-9118493D02*
X1770253Y-9070874D01*
X1770253Y-9070874D02*
X1779777Y-9032779D01*
X1779777Y-9032779D02*
X1789301Y-9013731D01*
X1789301Y-9013731D02*
X1798824Y-9004208D01*
X1798824Y-9004208D02*
X1817872Y-8994684D01*
X1970253Y-9175636D02*
X1979777Y-9185160D01*
X1979777Y-9185160D02*
X1970253Y-9194684D01*
X1970253Y-9194684D02*
X1960729Y-9185160D01*
X1960729Y-9185160D02*
X1970253Y-9175636D01*
X1970253Y-9175636D02*
X1970253Y-9194684D01*
X2151205Y-9061350D02*
X2151205Y-9194684D01*
X2103586Y-8985160D02*
X2055967Y-9128017D01*
X2055967Y-9128017D02*
X2179777Y-9128017D01*
X2294063Y-8994684D02*
X2313110Y-8994684D01*
X2313110Y-8994684D02*
X2332158Y-9004208D01*
X2332158Y-9004208D02*
X2341682Y-9013731D01*
X2341682Y-9013731D02*
X2351205Y-9032779D01*
X2351205Y-9032779D02*
X2360729Y-9070874D01*
X2360729Y-9070874D02*
X2360729Y-9118493D01*
X2360729Y-9118493D02*
X2351205Y-9156589D01*
X2351205Y-9156589D02*
X2341682Y-9175636D01*
X2341682Y-9175636D02*
X2332158Y-9185160D01*
X2332158Y-9185160D02*
X2313110Y-9194684D01*
X2313110Y-9194684D02*
X2294063Y-9194684D01*
X2294063Y-9194684D02*
X2275015Y-9185160D01*
X2275015Y-9185160D02*
X2265491Y-9175636D01*
X2265491Y-9175636D02*
X2255967Y-9156589D01*
X2255967Y-9156589D02*
X2246444Y-9118493D01*
X2246444Y-9118493D02*
X2246444Y-9070874D01*
X2246444Y-9070874D02*
X2255967Y-9032779D01*
X2255967Y-9032779D02*
X2265491Y-9013731D01*
X2265491Y-9013731D02*
X2275015Y-9004208D01*
X2275015Y-9004208D02*
X2294063Y-8994684D01*
X2484539Y-8994684D02*
X2503586Y-8994684D01*
X2503586Y-8994684D02*
X2522634Y-9004208D01*
X2522634Y-9004208D02*
X2532158Y-9013731D01*
X2532158Y-9013731D02*
X2541682Y-9032779D01*
X2541682Y-9032779D02*
X2551205Y-9070874D01*
X2551205Y-9070874D02*
X2551205Y-9118493D01*
X2551205Y-9118493D02*
X2541682Y-9156589D01*
X2541682Y-9156589D02*
X2532158Y-9175636D01*
X2532158Y-9175636D02*
X2522634Y-9185160D01*
X2522634Y-9185160D02*
X2503586Y-9194684D01*
X2503586Y-9194684D02*
X2484539Y-9194684D01*
X2484539Y-9194684D02*
X2465491Y-9185160D01*
X2465491Y-9185160D02*
X2455967Y-9175636D01*
X2455967Y-9175636D02*
X2446444Y-9156589D01*
X2446444Y-9156589D02*
X2436920Y-9118493D01*
X2436920Y-9118493D02*
X2436920Y-9070874D01*
X2436920Y-9070874D02*
X2446444Y-9032779D01*
X2446444Y-9032779D02*
X2455967Y-9013731D01*
X2455967Y-9013731D02*
X2465491Y-9004208D01*
X2465491Y-9004208D02*
X2484539Y-8994684D01*
X2636920Y-9194684D02*
X2636920Y-9061350D01*
X2636920Y-9080398D02*
X2646444Y-9070874D01*
X2646444Y-9070874D02*
X2665491Y-9061350D01*
X2665491Y-9061350D02*
X2694063Y-9061350D01*
X2694063Y-9061350D02*
X2713110Y-9070874D01*
X2713110Y-9070874D02*
X2722634Y-9089922D01*
X2722634Y-9089922D02*
X2722634Y-9194684D01*
X2722634Y-9089922D02*
X2732158Y-9070874D01*
X2732158Y-9070874D02*
X2751205Y-9061350D01*
X2751205Y-9061350D02*
X2779777Y-9061350D01*
X2779777Y-9061350D02*
X2798824Y-9070874D01*
X2798824Y-9070874D02*
X2808348Y-9089922D01*
X2808348Y-9089922D02*
X2808348Y-9194684D01*
X2903586Y-9194684D02*
X2903586Y-9061350D01*
X2903586Y-9080398D02*
X2913110Y-9070874D01*
X2913110Y-9070874D02*
X2932158Y-9061350D01*
X2932158Y-9061350D02*
X2960729Y-9061350D01*
X2960729Y-9061350D02*
X2979777Y-9070874D01*
X2979777Y-9070874D02*
X2989301Y-9089922D01*
X2989301Y-9089922D02*
X2989301Y-9194684D01*
X2989301Y-9089922D02*
X2998824Y-9070874D01*
X2998824Y-9070874D02*
X3017872Y-9061350D01*
X3017872Y-9061350D02*
X3046443Y-9061350D01*
X3046443Y-9061350D02*
X3065491Y-9070874D01*
X3065491Y-9070874D02*
X3075015Y-9089922D01*
X3075015Y-9089922D02*
X3075015Y-9194684D01*
X3465491Y-8985160D02*
X3294063Y-9242303D01*
X3722634Y-8994684D02*
X3741682Y-8994684D01*
X3741682Y-8994684D02*
X3760729Y-9004208D01*
X3760729Y-9004208D02*
X3770253Y-9013731D01*
X3770253Y-9013731D02*
X3779777Y-9032779D01*
X3779777Y-9032779D02*
X3789301Y-9070874D01*
X3789301Y-9070874D02*
X3789301Y-9118493D01*
X3789301Y-9118493D02*
X3779777Y-9156589D01*
X3779777Y-9156589D02*
X3770253Y-9175636D01*
X3770253Y-9175636D02*
X3760729Y-9185160D01*
X3760729Y-9185160D02*
X3741682Y-9194684D01*
X3741682Y-9194684D02*
X3722634Y-9194684D01*
X3722634Y-9194684D02*
X3703586Y-9185160D01*
X3703586Y-9185160D02*
X3694063Y-9175636D01*
X3694063Y-9175636D02*
X3684539Y-9156589D01*
X3684539Y-9156589D02*
X3675015Y-9118493D01*
X3675015Y-9118493D02*
X3675015Y-9070874D01*
X3675015Y-9070874D02*
X3684539Y-9032779D01*
X3684539Y-9032779D02*
X3694063Y-9013731D01*
X3694063Y-9013731D02*
X3703586Y-9004208D01*
X3703586Y-9004208D02*
X3722634Y-8994684D01*
X3875015Y-9175636D02*
X3884539Y-9185160D01*
X3884539Y-9185160D02*
X3875015Y-9194684D01*
X3875015Y-9194684D02*
X3865491Y-9185160D01*
X3865491Y-9185160D02*
X3875015Y-9175636D01*
X3875015Y-9175636D02*
X3875015Y-9194684D01*
X4008348Y-8994684D02*
X4027396Y-8994684D01*
X4027396Y-8994684D02*
X4046444Y-9004208D01*
X4046444Y-9004208D02*
X4055967Y-9013731D01*
X4055967Y-9013731D02*
X4065491Y-9032779D01*
X4065491Y-9032779D02*
X4075015Y-9070874D01*
X4075015Y-9070874D02*
X4075015Y-9118493D01*
X4075015Y-9118493D02*
X4065491Y-9156589D01*
X4065491Y-9156589D02*
X4055967Y-9175636D01*
X4055967Y-9175636D02*
X4046444Y-9185160D01*
X4046444Y-9185160D02*
X4027396Y-9194684D01*
X4027396Y-9194684D02*
X4008348Y-9194684D01*
X4008348Y-9194684D02*
X3989301Y-9185160D01*
X3989301Y-9185160D02*
X3979777Y-9175636D01*
X3979777Y-9175636D02*
X3970253Y-9156589D01*
X3970253Y-9156589D02*
X3960729Y-9118493D01*
X3960729Y-9118493D02*
X3960729Y-9070874D01*
X3960729Y-9070874D02*
X3970253Y-9032779D01*
X3970253Y-9032779D02*
X3979777Y-9013731D01*
X3979777Y-9013731D02*
X3989301Y-9004208D01*
X3989301Y-9004208D02*
X4008348Y-8994684D01*
X4265491Y-9194684D02*
X4151206Y-9194684D01*
X4208348Y-9194684D02*
X4208348Y-8994684D01*
X4208348Y-8994684D02*
X4189301Y-9023255D01*
X4189301Y-9023255D02*
X4170253Y-9042303D01*
X4170253Y-9042303D02*
X4151206Y-9051827D01*
X4446444Y-8994684D02*
X4351206Y-8994684D01*
X4351206Y-8994684D02*
X4341682Y-9089922D01*
X4341682Y-9089922D02*
X4351206Y-9080398D01*
X4351206Y-9080398D02*
X4370253Y-9070874D01*
X4370253Y-9070874D02*
X4417872Y-9070874D01*
X4417872Y-9070874D02*
X4436920Y-9080398D01*
X4436920Y-9080398D02*
X4446444Y-9089922D01*
X4446444Y-9089922D02*
X4455968Y-9108970D01*
X4455968Y-9108970D02*
X4455968Y-9156589D01*
X4455968Y-9156589D02*
X4446444Y-9175636D01*
X4446444Y-9175636D02*
X4436920Y-9185160D01*
X4436920Y-9185160D02*
X4417872Y-9194684D01*
X4417872Y-9194684D02*
X4370253Y-9194684D01*
X4370253Y-9194684D02*
X4351206Y-9185160D01*
X4351206Y-9185160D02*
X4341682Y-9175636D01*
X4522634Y-8994684D02*
X4655968Y-8994684D01*
X4655968Y-8994684D02*
X4570253Y-9194684D01*
X4722634Y-8994684D02*
X4722634Y-9032779D01*
X4798825Y-8994684D02*
X4798825Y-9032779D01*
X5094063Y-9270874D02*
X5084539Y-9261350D01*
X5084539Y-9261350D02*
X5065491Y-9232779D01*
X5065491Y-9232779D02*
X5055968Y-9213731D01*
X5055968Y-9213731D02*
X5046444Y-9185160D01*
X5046444Y-9185160D02*
X5036920Y-9137541D01*
X5036920Y-9137541D02*
X5036920Y-9099446D01*
X5036920Y-9099446D02*
X5046444Y-9051827D01*
X5046444Y-9051827D02*
X5055968Y-9023255D01*
X5055968Y-9023255D02*
X5065491Y-9004208D01*
X5065491Y-9004208D02*
X5084539Y-8975636D01*
X5084539Y-8975636D02*
X5094063Y-8966112D01*
X5151206Y-8994684D02*
X5275015Y-8994684D01*
X5275015Y-8994684D02*
X5208349Y-9070874D01*
X5208349Y-9070874D02*
X5236920Y-9070874D01*
X5236920Y-9070874D02*
X5255968Y-9080398D01*
X5255968Y-9080398D02*
X5265491Y-9089922D01*
X5265491Y-9089922D02*
X5275015Y-9108970D01*
X5275015Y-9108970D02*
X5275015Y-9156589D01*
X5275015Y-9156589D02*
X5265491Y-9175636D01*
X5265491Y-9175636D02*
X5255968Y-9185160D01*
X5255968Y-9185160D02*
X5236920Y-9194684D01*
X5236920Y-9194684D02*
X5179777Y-9194684D01*
X5179777Y-9194684D02*
X5160730Y-9185160D01*
X5160730Y-9185160D02*
X5151206Y-9175636D01*
X5389301Y-9080398D02*
X5370253Y-9070874D01*
X5370253Y-9070874D02*
X5360730Y-9061350D01*
X5360730Y-9061350D02*
X5351206Y-9042303D01*
X5351206Y-9042303D02*
X5351206Y-9032779D01*
X5351206Y-9032779D02*
X5360730Y-9013731D01*
X5360730Y-9013731D02*
X5370253Y-9004208D01*
X5370253Y-9004208D02*
X5389301Y-8994684D01*
X5389301Y-8994684D02*
X5427396Y-8994684D01*
X5427396Y-8994684D02*
X5446444Y-9004208D01*
X5446444Y-9004208D02*
X5455968Y-9013731D01*
X5455968Y-9013731D02*
X5465491Y-9032779D01*
X5465491Y-9032779D02*
X5465491Y-9042303D01*
X5465491Y-9042303D02*
X5455968Y-9061350D01*
X5455968Y-9061350D02*
X5446444Y-9070874D01*
X5446444Y-9070874D02*
X5427396Y-9080398D01*
X5427396Y-9080398D02*
X5389301Y-9080398D01*
X5389301Y-9080398D02*
X5370253Y-9089922D01*
X5370253Y-9089922D02*
X5360730Y-9099446D01*
X5360730Y-9099446D02*
X5351206Y-9118493D01*
X5351206Y-9118493D02*
X5351206Y-9156589D01*
X5351206Y-9156589D02*
X5360730Y-9175636D01*
X5360730Y-9175636D02*
X5370253Y-9185160D01*
X5370253Y-9185160D02*
X5389301Y-9194684D01*
X5389301Y-9194684D02*
X5427396Y-9194684D01*
X5427396Y-9194684D02*
X5446444Y-9185160D01*
X5446444Y-9185160D02*
X5455968Y-9175636D01*
X5455968Y-9175636D02*
X5465491Y-9156589D01*
X5465491Y-9156589D02*
X5465491Y-9118493D01*
X5465491Y-9118493D02*
X5455968Y-9099446D01*
X5455968Y-9099446D02*
X5446444Y-9089922D01*
X5446444Y-9089922D02*
X5427396Y-9080398D01*
X5703587Y-9194684D02*
X5703587Y-8994684D01*
X5789301Y-9194684D02*
X5789301Y-9089922D01*
X5789301Y-9089922D02*
X5779777Y-9070874D01*
X5779777Y-9070874D02*
X5760730Y-9061350D01*
X5760730Y-9061350D02*
X5732158Y-9061350D01*
X5732158Y-9061350D02*
X5713110Y-9070874D01*
X5713110Y-9070874D02*
X5703587Y-9080398D01*
X5913110Y-9194684D02*
X5894063Y-9185160D01*
X5894063Y-9185160D02*
X5884539Y-9175636D01*
X5884539Y-9175636D02*
X5875015Y-9156589D01*
X5875015Y-9156589D02*
X5875015Y-9099446D01*
X5875015Y-9099446D02*
X5884539Y-9080398D01*
X5884539Y-9080398D02*
X5894063Y-9070874D01*
X5894063Y-9070874D02*
X5913110Y-9061350D01*
X5913110Y-9061350D02*
X5941682Y-9061350D01*
X5941682Y-9061350D02*
X5960730Y-9070874D01*
X5960730Y-9070874D02*
X5970253Y-9080398D01*
X5970253Y-9080398D02*
X5979777Y-9099446D01*
X5979777Y-9099446D02*
X5979777Y-9156589D01*
X5979777Y-9156589D02*
X5970253Y-9175636D01*
X5970253Y-9175636D02*
X5960730Y-9185160D01*
X5960730Y-9185160D02*
X5941682Y-9194684D01*
X5941682Y-9194684D02*
X5913110Y-9194684D01*
X6094063Y-9194684D02*
X6075015Y-9185160D01*
X6075015Y-9185160D02*
X6065491Y-9166112D01*
X6065491Y-9166112D02*
X6065491Y-8994684D01*
X6246444Y-9185160D02*
X6227396Y-9194684D01*
X6227396Y-9194684D02*
X6189301Y-9194684D01*
X6189301Y-9194684D02*
X6170253Y-9185160D01*
X6170253Y-9185160D02*
X6160730Y-9166112D01*
X6160730Y-9166112D02*
X6160730Y-9089922D01*
X6160730Y-9089922D02*
X6170253Y-9070874D01*
X6170253Y-9070874D02*
X6189301Y-9061350D01*
X6189301Y-9061350D02*
X6227396Y-9061350D01*
X6227396Y-9061350D02*
X6246444Y-9070874D01*
X6246444Y-9070874D02*
X6255968Y-9089922D01*
X6255968Y-9089922D02*
X6255968Y-9108970D01*
X6255968Y-9108970D02*
X6160730Y-9128017D01*
X6332158Y-9185160D02*
X6351206Y-9194684D01*
X6351206Y-9194684D02*
X6389301Y-9194684D01*
X6389301Y-9194684D02*
X6408349Y-9185160D01*
X6408349Y-9185160D02*
X6417872Y-9166112D01*
X6417872Y-9166112D02*
X6417872Y-9156589D01*
X6417872Y-9156589D02*
X6408349Y-9137541D01*
X6408349Y-9137541D02*
X6389301Y-9128017D01*
X6389301Y-9128017D02*
X6360730Y-9128017D01*
X6360730Y-9128017D02*
X6341682Y-9118493D01*
X6341682Y-9118493D02*
X6332158Y-9099446D01*
X6332158Y-9099446D02*
X6332158Y-9089922D01*
X6332158Y-9089922D02*
X6341682Y-9070874D01*
X6341682Y-9070874D02*
X6360730Y-9061350D01*
X6360730Y-9061350D02*
X6389301Y-9061350D01*
X6389301Y-9061350D02*
X6408349Y-9070874D01*
X6484539Y-9270874D02*
X6494063Y-9261350D01*
X6494063Y-9261350D02*
X6513111Y-9232779D01*
X6513111Y-9232779D02*
X6522634Y-9213731D01*
X6522634Y-9213731D02*
X6532158Y-9185160D01*
X6532158Y-9185160D02*
X6541682Y-9137541D01*
X6541682Y-9137541D02*
X6541682Y-9099446D01*
X6541682Y-9099446D02*
X6532158Y-9051827D01*
X6532158Y-9051827D02*
X6522634Y-9023255D01*
X6522634Y-9023255D02*
X6513111Y-9004208D01*
X6513111Y-9004208D02*
X6494063Y-8975636D01*
X6494063Y-8975636D02*
X6484539Y-8966112D01*
D10*
X1519000Y-9367200D02*
G75*
G03*
X1519000Y-9367200I-50000J0D01*
G01*
D11*
X1884539Y-9458684D02*
X1770253Y-9458684D01*
X1827396Y-9458684D02*
X1827396Y-9258684D01*
X1827396Y-9258684D02*
X1808348Y-9287255D01*
X1808348Y-9287255D02*
X1789301Y-9306303D01*
X1789301Y-9306303D02*
X1770253Y-9315827D01*
X1970253Y-9439636D02*
X1979777Y-9449160D01*
X1979777Y-9449160D02*
X1970253Y-9458684D01*
X1970253Y-9458684D02*
X1960729Y-9449160D01*
X1960729Y-9449160D02*
X1970253Y-9439636D01*
X1970253Y-9439636D02*
X1970253Y-9458684D01*
X2103586Y-9258684D02*
X2122634Y-9258684D01*
X2122634Y-9258684D02*
X2141682Y-9268208D01*
X2141682Y-9268208D02*
X2151205Y-9277731D01*
X2151205Y-9277731D02*
X2160729Y-9296779D01*
X2160729Y-9296779D02*
X2170253Y-9334874D01*
X2170253Y-9334874D02*
X2170253Y-9382493D01*
X2170253Y-9382493D02*
X2160729Y-9420589D01*
X2160729Y-9420589D02*
X2151205Y-9439636D01*
X2151205Y-9439636D02*
X2141682Y-9449160D01*
X2141682Y-9449160D02*
X2122634Y-9458684D01*
X2122634Y-9458684D02*
X2103586Y-9458684D01*
X2103586Y-9458684D02*
X2084539Y-9449160D01*
X2084539Y-9449160D02*
X2075015Y-9439636D01*
X2075015Y-9439636D02*
X2065491Y-9420589D01*
X2065491Y-9420589D02*
X2055967Y-9382493D01*
X2055967Y-9382493D02*
X2055967Y-9334874D01*
X2055967Y-9334874D02*
X2065491Y-9296779D01*
X2065491Y-9296779D02*
X2075015Y-9277731D01*
X2075015Y-9277731D02*
X2084539Y-9268208D01*
X2084539Y-9268208D02*
X2103586Y-9258684D01*
X2294063Y-9258684D02*
X2313110Y-9258684D01*
X2313110Y-9258684D02*
X2332158Y-9268208D01*
X2332158Y-9268208D02*
X2341682Y-9277731D01*
X2341682Y-9277731D02*
X2351205Y-9296779D01*
X2351205Y-9296779D02*
X2360729Y-9334874D01*
X2360729Y-9334874D02*
X2360729Y-9382493D01*
X2360729Y-9382493D02*
X2351205Y-9420589D01*
X2351205Y-9420589D02*
X2341682Y-9439636D01*
X2341682Y-9439636D02*
X2332158Y-9449160D01*
X2332158Y-9449160D02*
X2313110Y-9458684D01*
X2313110Y-9458684D02*
X2294063Y-9458684D01*
X2294063Y-9458684D02*
X2275015Y-9449160D01*
X2275015Y-9449160D02*
X2265491Y-9439636D01*
X2265491Y-9439636D02*
X2255967Y-9420589D01*
X2255967Y-9420589D02*
X2246444Y-9382493D01*
X2246444Y-9382493D02*
X2246444Y-9334874D01*
X2246444Y-9334874D02*
X2255967Y-9296779D01*
X2255967Y-9296779D02*
X2265491Y-9277731D01*
X2265491Y-9277731D02*
X2275015Y-9268208D01*
X2275015Y-9268208D02*
X2294063Y-9258684D01*
X2484539Y-9258684D02*
X2503586Y-9258684D01*
X2503586Y-9258684D02*
X2522634Y-9268208D01*
X2522634Y-9268208D02*
X2532158Y-9277731D01*
X2532158Y-9277731D02*
X2541682Y-9296779D01*
X2541682Y-9296779D02*
X2551205Y-9334874D01*
X2551205Y-9334874D02*
X2551205Y-9382493D01*
X2551205Y-9382493D02*
X2541682Y-9420589D01*
X2541682Y-9420589D02*
X2532158Y-9439636D01*
X2532158Y-9439636D02*
X2522634Y-9449160D01*
X2522634Y-9449160D02*
X2503586Y-9458684D01*
X2503586Y-9458684D02*
X2484539Y-9458684D01*
X2484539Y-9458684D02*
X2465491Y-9449160D01*
X2465491Y-9449160D02*
X2455967Y-9439636D01*
X2455967Y-9439636D02*
X2446444Y-9420589D01*
X2446444Y-9420589D02*
X2436920Y-9382493D01*
X2436920Y-9382493D02*
X2436920Y-9334874D01*
X2436920Y-9334874D02*
X2446444Y-9296779D01*
X2446444Y-9296779D02*
X2455967Y-9277731D01*
X2455967Y-9277731D02*
X2465491Y-9268208D01*
X2465491Y-9268208D02*
X2484539Y-9258684D01*
X2636920Y-9458684D02*
X2636920Y-9325350D01*
X2636920Y-9344398D02*
X2646444Y-9334874D01*
X2646444Y-9334874D02*
X2665491Y-9325350D01*
X2665491Y-9325350D02*
X2694063Y-9325350D01*
X2694063Y-9325350D02*
X2713110Y-9334874D01*
X2713110Y-9334874D02*
X2722634Y-9353922D01*
X2722634Y-9353922D02*
X2722634Y-9458684D01*
X2722634Y-9353922D02*
X2732158Y-9334874D01*
X2732158Y-9334874D02*
X2751205Y-9325350D01*
X2751205Y-9325350D02*
X2779777Y-9325350D01*
X2779777Y-9325350D02*
X2798824Y-9334874D01*
X2798824Y-9334874D02*
X2808348Y-9353922D01*
X2808348Y-9353922D02*
X2808348Y-9458684D01*
X2903586Y-9458684D02*
X2903586Y-9325350D01*
X2903586Y-9344398D02*
X2913110Y-9334874D01*
X2913110Y-9334874D02*
X2932158Y-9325350D01*
X2932158Y-9325350D02*
X2960729Y-9325350D01*
X2960729Y-9325350D02*
X2979777Y-9334874D01*
X2979777Y-9334874D02*
X2989301Y-9353922D01*
X2989301Y-9353922D02*
X2989301Y-9458684D01*
X2989301Y-9353922D02*
X2998824Y-9334874D01*
X2998824Y-9334874D02*
X3017872Y-9325350D01*
X3017872Y-9325350D02*
X3046443Y-9325350D01*
X3046443Y-9325350D02*
X3065491Y-9334874D01*
X3065491Y-9334874D02*
X3075015Y-9353922D01*
X3075015Y-9353922D02*
X3075015Y-9458684D01*
X3465491Y-9249160D02*
X3294063Y-9506303D01*
X3722634Y-9258684D02*
X3741682Y-9258684D01*
X3741682Y-9258684D02*
X3760729Y-9268208D01*
X3760729Y-9268208D02*
X3770253Y-9277731D01*
X3770253Y-9277731D02*
X3779777Y-9296779D01*
X3779777Y-9296779D02*
X3789301Y-9334874D01*
X3789301Y-9334874D02*
X3789301Y-9382493D01*
X3789301Y-9382493D02*
X3779777Y-9420589D01*
X3779777Y-9420589D02*
X3770253Y-9439636D01*
X3770253Y-9439636D02*
X3760729Y-9449160D01*
X3760729Y-9449160D02*
X3741682Y-9458684D01*
X3741682Y-9458684D02*
X3722634Y-9458684D01*
X3722634Y-9458684D02*
X3703586Y-9449160D01*
X3703586Y-9449160D02*
X3694063Y-9439636D01*
X3694063Y-9439636D02*
X3684539Y-9420589D01*
X3684539Y-9420589D02*
X3675015Y-9382493D01*
X3675015Y-9382493D02*
X3675015Y-9334874D01*
X3675015Y-9334874D02*
X3684539Y-9296779D01*
X3684539Y-9296779D02*
X3694063Y-9277731D01*
X3694063Y-9277731D02*
X3703586Y-9268208D01*
X3703586Y-9268208D02*
X3722634Y-9258684D01*
X3875015Y-9439636D02*
X3884539Y-9449160D01*
X3884539Y-9449160D02*
X3875015Y-9458684D01*
X3875015Y-9458684D02*
X3865491Y-9449160D01*
X3865491Y-9449160D02*
X3875015Y-9439636D01*
X3875015Y-9439636D02*
X3875015Y-9458684D01*
X4008348Y-9258684D02*
X4027396Y-9258684D01*
X4027396Y-9258684D02*
X4046444Y-9268208D01*
X4046444Y-9268208D02*
X4055967Y-9277731D01*
X4055967Y-9277731D02*
X4065491Y-9296779D01*
X4065491Y-9296779D02*
X4075015Y-9334874D01*
X4075015Y-9334874D02*
X4075015Y-9382493D01*
X4075015Y-9382493D02*
X4065491Y-9420589D01*
X4065491Y-9420589D02*
X4055967Y-9439636D01*
X4055967Y-9439636D02*
X4046444Y-9449160D01*
X4046444Y-9449160D02*
X4027396Y-9458684D01*
X4027396Y-9458684D02*
X4008348Y-9458684D01*
X4008348Y-9458684D02*
X3989301Y-9449160D01*
X3989301Y-9449160D02*
X3979777Y-9439636D01*
X3979777Y-9439636D02*
X3970253Y-9420589D01*
X3970253Y-9420589D02*
X3960729Y-9382493D01*
X3960729Y-9382493D02*
X3960729Y-9334874D01*
X3960729Y-9334874D02*
X3970253Y-9296779D01*
X3970253Y-9296779D02*
X3979777Y-9277731D01*
X3979777Y-9277731D02*
X3989301Y-9268208D01*
X3989301Y-9268208D02*
X4008348Y-9258684D01*
X4141682Y-9258684D02*
X4265491Y-9258684D01*
X4265491Y-9258684D02*
X4198825Y-9334874D01*
X4198825Y-9334874D02*
X4227396Y-9334874D01*
X4227396Y-9334874D02*
X4246444Y-9344398D01*
X4246444Y-9344398D02*
X4255968Y-9353922D01*
X4255968Y-9353922D02*
X4265491Y-9372970D01*
X4265491Y-9372970D02*
X4265491Y-9420589D01*
X4265491Y-9420589D02*
X4255968Y-9439636D01*
X4255968Y-9439636D02*
X4246444Y-9449160D01*
X4246444Y-9449160D02*
X4227396Y-9458684D01*
X4227396Y-9458684D02*
X4170253Y-9458684D01*
X4170253Y-9458684D02*
X4151206Y-9449160D01*
X4151206Y-9449160D02*
X4141682Y-9439636D01*
X4360729Y-9458684D02*
X4398825Y-9458684D01*
X4398825Y-9458684D02*
X4417872Y-9449160D01*
X4417872Y-9449160D02*
X4427396Y-9439636D01*
X4427396Y-9439636D02*
X4446444Y-9411065D01*
X4446444Y-9411065D02*
X4455968Y-9372970D01*
X4455968Y-9372970D02*
X4455968Y-9296779D01*
X4455968Y-9296779D02*
X4446444Y-9277731D01*
X4446444Y-9277731D02*
X4436920Y-9268208D01*
X4436920Y-9268208D02*
X4417872Y-9258684D01*
X4417872Y-9258684D02*
X4379777Y-9258684D01*
X4379777Y-9258684D02*
X4360729Y-9268208D01*
X4360729Y-9268208D02*
X4351206Y-9277731D01*
X4351206Y-9277731D02*
X4341682Y-9296779D01*
X4341682Y-9296779D02*
X4341682Y-9344398D01*
X4341682Y-9344398D02*
X4351206Y-9363446D01*
X4351206Y-9363446D02*
X4360729Y-9372970D01*
X4360729Y-9372970D02*
X4379777Y-9382493D01*
X4379777Y-9382493D02*
X4417872Y-9382493D01*
X4417872Y-9382493D02*
X4436920Y-9372970D01*
X4436920Y-9372970D02*
X4446444Y-9363446D01*
X4446444Y-9363446D02*
X4455968Y-9344398D01*
X4627396Y-9325350D02*
X4627396Y-9458684D01*
X4579777Y-9249160D02*
X4532158Y-9392017D01*
X4532158Y-9392017D02*
X4655968Y-9392017D01*
X4722634Y-9258684D02*
X4722634Y-9296779D01*
X4798825Y-9258684D02*
X4798825Y-9296779D01*
X5094063Y-9534874D02*
X5084539Y-9525350D01*
X5084539Y-9525350D02*
X5065491Y-9496779D01*
X5065491Y-9496779D02*
X5055968Y-9477731D01*
X5055968Y-9477731D02*
X5046444Y-9449160D01*
X5046444Y-9449160D02*
X5036920Y-9401541D01*
X5036920Y-9401541D02*
X5036920Y-9363446D01*
X5036920Y-9363446D02*
X5046444Y-9315827D01*
X5046444Y-9315827D02*
X5055968Y-9287255D01*
X5055968Y-9287255D02*
X5065491Y-9268208D01*
X5065491Y-9268208D02*
X5084539Y-9239636D01*
X5084539Y-9239636D02*
X5094063Y-9230112D01*
X5160730Y-9277731D02*
X5170253Y-9268208D01*
X5170253Y-9268208D02*
X5189301Y-9258684D01*
X5189301Y-9258684D02*
X5236920Y-9258684D01*
X5236920Y-9258684D02*
X5255968Y-9268208D01*
X5255968Y-9268208D02*
X5265491Y-9277731D01*
X5265491Y-9277731D02*
X5275015Y-9296779D01*
X5275015Y-9296779D02*
X5275015Y-9315827D01*
X5275015Y-9315827D02*
X5265491Y-9344398D01*
X5265491Y-9344398D02*
X5151206Y-9458684D01*
X5151206Y-9458684D02*
X5275015Y-9458684D01*
X5341682Y-9258684D02*
X5475015Y-9258684D01*
X5475015Y-9258684D02*
X5389301Y-9458684D01*
X5703587Y-9458684D02*
X5703587Y-9258684D01*
X5789301Y-9458684D02*
X5789301Y-9353922D01*
X5789301Y-9353922D02*
X5779777Y-9334874D01*
X5779777Y-9334874D02*
X5760730Y-9325350D01*
X5760730Y-9325350D02*
X5732158Y-9325350D01*
X5732158Y-9325350D02*
X5713110Y-9334874D01*
X5713110Y-9334874D02*
X5703587Y-9344398D01*
X5913110Y-9458684D02*
X5894063Y-9449160D01*
X5894063Y-9449160D02*
X5884539Y-9439636D01*
X5884539Y-9439636D02*
X5875015Y-9420589D01*
X5875015Y-9420589D02*
X5875015Y-9363446D01*
X5875015Y-9363446D02*
X5884539Y-9344398D01*
X5884539Y-9344398D02*
X5894063Y-9334874D01*
X5894063Y-9334874D02*
X5913110Y-9325350D01*
X5913110Y-9325350D02*
X5941682Y-9325350D01*
X5941682Y-9325350D02*
X5960730Y-9334874D01*
X5960730Y-9334874D02*
X5970253Y-9344398D01*
X5970253Y-9344398D02*
X5979777Y-9363446D01*
X5979777Y-9363446D02*
X5979777Y-9420589D01*
X5979777Y-9420589D02*
X5970253Y-9439636D01*
X5970253Y-9439636D02*
X5960730Y-9449160D01*
X5960730Y-9449160D02*
X5941682Y-9458684D01*
X5941682Y-9458684D02*
X5913110Y-9458684D01*
X6094063Y-9458684D02*
X6075015Y-9449160D01*
X6075015Y-9449160D02*
X6065491Y-9430112D01*
X6065491Y-9430112D02*
X6065491Y-9258684D01*
X6246444Y-9449160D02*
X6227396Y-9458684D01*
X6227396Y-9458684D02*
X6189301Y-9458684D01*
X6189301Y-9458684D02*
X6170253Y-9449160D01*
X6170253Y-9449160D02*
X6160730Y-9430112D01*
X6160730Y-9430112D02*
X6160730Y-9353922D01*
X6160730Y-9353922D02*
X6170253Y-9334874D01*
X6170253Y-9334874D02*
X6189301Y-9325350D01*
X6189301Y-9325350D02*
X6227396Y-9325350D01*
X6227396Y-9325350D02*
X6246444Y-9334874D01*
X6246444Y-9334874D02*
X6255968Y-9353922D01*
X6255968Y-9353922D02*
X6255968Y-9372970D01*
X6255968Y-9372970D02*
X6160730Y-9392017D01*
X6332158Y-9449160D02*
X6351206Y-9458684D01*
X6351206Y-9458684D02*
X6389301Y-9458684D01*
X6389301Y-9458684D02*
X6408349Y-9449160D01*
X6408349Y-9449160D02*
X6417872Y-9430112D01*
X6417872Y-9430112D02*
X6417872Y-9420589D01*
X6417872Y-9420589D02*
X6408349Y-9401541D01*
X6408349Y-9401541D02*
X6389301Y-9392017D01*
X6389301Y-9392017D02*
X6360730Y-9392017D01*
X6360730Y-9392017D02*
X6341682Y-9382493D01*
X6341682Y-9382493D02*
X6332158Y-9363446D01*
X6332158Y-9363446D02*
X6332158Y-9353922D01*
X6332158Y-9353922D02*
X6341682Y-9334874D01*
X6341682Y-9334874D02*
X6360730Y-9325350D01*
X6360730Y-9325350D02*
X6389301Y-9325350D01*
X6389301Y-9325350D02*
X6408349Y-9334874D01*
X6484539Y-9534874D02*
X6494063Y-9525350D01*
X6494063Y-9525350D02*
X6513111Y-9496779D01*
X6513111Y-9496779D02*
X6522634Y-9477731D01*
X6522634Y-9477731D02*
X6532158Y-9449160D01*
X6532158Y-9449160D02*
X6541682Y-9401541D01*
X6541682Y-9401541D02*
X6541682Y-9363446D01*
X6541682Y-9363446D02*
X6532158Y-9315827D01*
X6532158Y-9315827D02*
X6522634Y-9287255D01*
X6522634Y-9287255D02*
X6513111Y-9268208D01*
X6513111Y-9268208D02*
X6494063Y-9239636D01*
X6494063Y-9239636D02*
X6484539Y-9230112D01*
M02*
