M48
; DRILL file {KiCad 7.0.5-94-gd77180d9b5} date Tue Jun 13 20:43:33 2023
; FORMAT={-:-/ absolute / metric / decimal}
; #@! TF.CreationDate,2023-06-13T20:43:33-05:00
; #@! TF.GenerationSoftware,Kicad,Pcbnew,7.0.5-94-gd77180d9b5
; #@! TF.FileFunction,Plated,1,2,PTH
FMAT,2
METRIC
; #@! TA.AperFunction,Plated,PTH,ViaDrill
T1C0.400
; #@! TA.AperFunction,Plated,PTH,ComponentDrill
T2C1.000
%
G90
G05
T1
X20.862Y-43.739
X21.912Y-43.739
X23.427Y-25.146
X23.427Y-31.775
X24.477Y-25.146
X24.477Y-31.775
X25.154Y-35.687
X26.204Y-35.687
X28.245Y-39.407
X30.759Y-30.759
X30.759Y-34.417
X30.759Y-38.075
X30.759Y-41.732
X30.759Y-45.39
X31.699Y-32.08
X31.725Y-35.738
X31.725Y-39.395
X31.725Y-43.053
X33.909Y-41.442
X34.747Y-43.967
X35.941Y-36.627
X36.043Y-44.679
X38.075Y-57.353
X38.075Y-58.42
X38.329Y-33.757
X39.04Y-32.292
X39.522Y-28.245
X39.573Y-20.172
X39.573Y-21.222
X40.117Y-46.33
X40.234Y-60.579
X40.284Y-57.353
X40.386Y-43.967
X40.488Y-29.058
X40.538Y-33.807
X40.767Y-52.332
X40.767Y-53.382
X41.427Y-45.771
T2
X21.082Y-28.702
X21.082Y-31.242
X21.082Y-66.802
X23.622Y-66.802
X26.162Y-66.802
X28.702Y-66.802
X31.242Y-66.802
X33.782Y-66.802
X36.322Y-66.802
X38.862Y-66.802
X41.402Y-66.802
X43.942Y-19.427
X43.942Y-21.967
X43.942Y-24.507
X43.942Y-27.047
X43.942Y-29.587
X43.942Y-32.127
X43.942Y-34.667
X43.942Y-37.207
X43.942Y-41.427
X43.942Y-43.967
X43.942Y-46.507
X43.942Y-49.047
X43.942Y-51.587
X43.942Y-54.127
X43.942Y-56.667
X43.942Y-59.207
T0
M30
