%TF.GenerationSoftware,KiCad,Pcbnew,7.0.5-94-gd77180d9b5*%
%TF.CreationDate,2023-06-13T21:26:35-05:00*%
%TF.ProjectId,Tek P6860 Adapter v.2,54656b20-5036-4383-9630-204164617074,rev?*%
%TF.SameCoordinates,Original*%
%TF.FileFunction,Copper,L1,Top*%
%TF.FilePolarity,Positive*%
%FSLAX46Y46*%
G04 Gerber Fmt 4.6, Leading zero omitted, Abs format (unit mm)*
G04 Created by KiCad (PCBNEW 7.0.5-94-gd77180d9b5) date 2023-06-13 21:26:35*
%MOMM*%
%LPD*%
G01*
G04 APERTURE LIST*
%TA.AperFunction,ComponentPad*%
%ADD10R,1.700000X1.700000*%
%TD*%
%TA.AperFunction,ComponentPad*%
%ADD11O,1.700000X1.700000*%
%TD*%
%TA.AperFunction,SMDPad,CuDef*%
%ADD12R,0.810000X0.410000*%
%TD*%
%TA.AperFunction,SMDPad,CuDef*%
%ADD13R,1.120000X2.160000*%
%TD*%
%TA.AperFunction,ViaPad*%
%ADD14C,0.800000*%
%TD*%
%TA.AperFunction,Conductor*%
%ADD15C,0.200000*%
%TD*%
%TA.AperFunction,Conductor*%
%ADD16C,0.250000*%
%TD*%
G04 APERTURE END LIST*
D10*
%TO.P,J3,1,Pin_1*%
%TO.N,/CLK+*%
X21082000Y-31242000D03*
D11*
%TO.P,J3,2,Pin_2*%
%TO.N,/CLK-*%
X21082000Y-28702000D03*
%TD*%
D12*
%TO.P,J4,A1,D0*%
%TO.N,/D0+*%
X29677000Y-46302000D03*
%TO.P,J4,A2,GND*%
%TO.N,/GND1*%
X29677000Y-45387000D03*
%TO.P,J4,A3,D1*%
%TO.N,/D0-*%
X29677000Y-44482000D03*
%TO.P,J4,A4,D4*%
%TO.N,/D2+*%
X29677000Y-42642000D03*
%TO.P,J4,A5,GND*%
%TO.N,/GND3*%
X29677000Y-41732000D03*
%TO.P,J4,A6,D5*%
%TO.N,/D2-*%
X29677000Y-40822000D03*
%TO.P,J4,A7,D8*%
%TO.N,/D4+*%
X29677000Y-38977000D03*
%TO.P,J4,A8,GND*%
%TO.N,/GND5*%
X29677000Y-38072000D03*
%TO.P,J4,A9,D9*%
%TO.N,/D4-*%
X29677000Y-37162000D03*
%TO.P,J4,A10,D12*%
%TO.N,/D6-*%
X29677000Y-35322000D03*
%TO.P,J4,A11,GND*%
%TO.N,/GND7*%
X29677000Y-34407000D03*
%TO.P,J4,A12,D13*%
%TO.N,/D6+*%
X29677000Y-33502000D03*
%TO.P,J4,A13,CLK+*%
%TO.N,/CLK+*%
X29677000Y-31667000D03*
%TO.P,J4,A14,GND*%
%TO.N,/GND9*%
X29677000Y-30757000D03*
%TO.P,J4,A15,CLK-*%
%TO.N,/CLK-*%
X29677000Y-29847000D03*
%TO.P,J4,B1,D2*%
%TO.N,/D1+*%
X32807000Y-43962000D03*
%TO.P,J4,B2,GND*%
%TO.N,/GND2*%
X32807000Y-43052000D03*
%TO.P,J4,B3,D3*%
%TO.N,/D1-*%
X32812000Y-42142000D03*
%TO.P,J4,B4,D6*%
%TO.N,/D3-*%
X32812000Y-40302000D03*
%TO.P,J4,B5,GND*%
%TO.N,/GND4*%
X32812000Y-39392000D03*
%TO.P,J4,B6,D7*%
%TO.N,/D3+*%
X32812000Y-38482000D03*
%TO.P,J4,B7,D10*%
%TO.N,/D5-*%
X32812000Y-36647000D03*
%TO.P,J4,B8,GND*%
%TO.N,/GND6*%
X32812000Y-35742000D03*
%TO.P,J4,B9,D11*%
%TO.N,/D5+*%
X32812000Y-34832000D03*
%TO.P,J4,B10,D14*%
%TO.N,/D7-*%
X32807000Y-32992000D03*
%TO.P,J4,B11,GND*%
%TO.N,/GND8*%
X32807000Y-32082000D03*
%TO.P,J4,B12,D15*%
%TO.N,/D7+*%
X32812000Y-31172000D03*
%TD*%
D13*
%TO.P,SW1,1*%
%TO.N,/GND1*%
X41402000Y-70866000D03*
%TO.P,SW1,2*%
%TO.N,/GND2*%
X38862000Y-70866000D03*
%TO.P,SW1,3*%
%TO.N,/GND3*%
X36322000Y-70866000D03*
%TO.P,SW1,4*%
%TO.N,/GND4*%
X33782000Y-70866000D03*
%TO.P,SW1,5*%
%TO.N,/GND5*%
X31242000Y-70866000D03*
%TO.P,SW1,6*%
%TO.N,/GND6*%
X28702000Y-70866000D03*
%TO.P,SW1,7*%
%TO.N,/GND7*%
X26162000Y-70866000D03*
%TO.P,SW1,8*%
%TO.N,/GND8*%
X23622000Y-70866000D03*
%TO.P,SW1,9*%
%TO.N,/GND9*%
X21082000Y-70866000D03*
%TO.P,SW1,10*%
%TO.N,/GNDTIE*%
X21082000Y-77596000D03*
%TO.P,SW1,11*%
X23622000Y-77596000D03*
%TO.P,SW1,12*%
X26162000Y-77596000D03*
%TO.P,SW1,13*%
X28702000Y-77596000D03*
%TO.P,SW1,14*%
X31242000Y-77596000D03*
%TO.P,SW1,15*%
X33782000Y-77596000D03*
%TO.P,SW1,16*%
X36322000Y-77596000D03*
%TO.P,SW1,17*%
X38862000Y-77596000D03*
%TO.P,SW1,18*%
X41402000Y-77596000D03*
%TD*%
D10*
%TO.P,J5,1,Pin_1*%
%TO.N,/GND1*%
X41402000Y-66802000D03*
D11*
%TO.P,J5,2,Pin_2*%
%TO.N,/GND2*%
X38862000Y-66802000D03*
%TO.P,J5,3,Pin_3*%
%TO.N,/GND3*%
X36322000Y-66802000D03*
%TO.P,J5,4,Pin_4*%
%TO.N,/GND4*%
X33782000Y-66802000D03*
%TO.P,J5,5,Pin_5*%
%TO.N,/GND5*%
X31242000Y-66802000D03*
%TO.P,J5,6,Pin_6*%
%TO.N,/GND6*%
X28702000Y-66802000D03*
%TO.P,J5,7,Pin_7*%
%TO.N,/GND7*%
X26162000Y-66802000D03*
%TO.P,J5,8,Pin_8*%
%TO.N,/GND8*%
X23622000Y-66802000D03*
%TO.P,J5,9,Pin_9*%
%TO.N,/GND9*%
X21082000Y-66802000D03*
%TD*%
D10*
%TO.P,J2,1,Pin_1*%
%TO.N,/D4+*%
X43942000Y-19427000D03*
D11*
%TO.P,J2,2,Pin_2*%
%TO.N,/D4-*%
X43942000Y-21967000D03*
%TO.P,J2,3,Pin_3*%
%TO.N,/D5-*%
X43942000Y-24507000D03*
%TO.P,J2,4,Pin_4*%
%TO.N,/D5+*%
X43942000Y-27047000D03*
%TO.P,J2,5,Pin_5*%
%TO.N,/D6-*%
X43942000Y-29587000D03*
%TO.P,J2,6,Pin_6*%
%TO.N,/D6+*%
X43942000Y-32127000D03*
%TO.P,J2,7,Pin_7*%
%TO.N,/D7-*%
X43942000Y-34667000D03*
%TO.P,J2,8,Pin_8*%
%TO.N,/D7+*%
X43942000Y-37207000D03*
%TD*%
D10*
%TO.P,J1,1,Pin_1*%
%TO.N,/D0+*%
X43942000Y-41427400D03*
D11*
%TO.P,J1,2,Pin_2*%
%TO.N,/D0-*%
X43942000Y-43967400D03*
%TO.P,J1,3,Pin_3*%
%TO.N,/D1+*%
X43942000Y-46507400D03*
%TO.P,J1,4,Pin_4*%
%TO.N,/D1-*%
X43942000Y-49047400D03*
%TO.P,J1,5,Pin_5*%
%TO.N,/D2+*%
X43942000Y-51587400D03*
%TO.P,J1,6,Pin_6*%
%TO.N,/D2-*%
X43942000Y-54127400D03*
%TO.P,J1,7,Pin_7*%
%TO.N,/D3-*%
X43942000Y-56667400D03*
%TO.P,J1,8,Pin_8*%
%TO.N,/D3+*%
X43942000Y-59207400D03*
%TD*%
D14*
%TO.N,/D1+*%
X40386000Y-43967400D03*
X34747200Y-43967400D03*
%TO.N,/D1-*%
X41427400Y-45770800D03*
X36042600Y-44678600D03*
%TO.N,/D2+*%
X40767000Y-52332400D03*
X21911800Y-43738800D03*
%TO.N,/D2-*%
X40767000Y-53382400D03*
X20861800Y-43738800D03*
%TO.N,/D3-*%
X33909000Y-41442500D03*
X40116700Y-46329600D03*
%TO.N,/D3+*%
X40284400Y-57353200D03*
X38074600Y-57353200D03*
%TO.N,/D4+*%
X25154400Y-35687000D03*
X39573200Y-20172000D03*
%TO.N,/D4-*%
X39573200Y-21222000D03*
X26204400Y-35687000D03*
%TO.N,/D5-*%
X35941000Y-36626800D03*
X39522400Y-28244800D03*
%TO.N,/D5+*%
X38328600Y-33756600D03*
X40487600Y-29057600D03*
%TO.N,/D6-*%
X23427200Y-31775400D03*
X23427200Y-25146000D03*
%TO.N,/D6+*%
X24477200Y-31775400D03*
X24477200Y-25146000D03*
%TO.N,/D7+*%
X39039800Y-32292500D03*
X40538400Y-33807400D03*
%TO.N,/GND1*%
X30759400Y-45389800D03*
%TO.N,/GND3*%
X30759400Y-41732200D03*
%TO.N,/GND5*%
X30759400Y-38074600D03*
%TO.N,/GND7*%
X30759400Y-34417000D03*
%TO.N,/GND9*%
X30759400Y-30759400D03*
%TO.N,/GND2*%
X40233600Y-60579000D03*
X31724600Y-43053000D03*
X38074600Y-58420000D03*
%TO.N,/GND4*%
X31724600Y-39395400D03*
%TO.N,/GND6*%
X31724600Y-35737800D03*
X28244800Y-39407500D03*
%TO.N,/GND8*%
X31699200Y-32080200D03*
%TD*%
D15*
%TO.N,/D0+*%
X43942000Y-41427400D02*
X42666999Y-41427400D01*
X38967200Y-60689000D02*
X37778200Y-61878000D01*
X25315400Y-61878000D02*
X20113200Y-56675800D01*
X37778200Y-61878000D02*
X25315400Y-61878000D01*
X28384499Y-45617000D02*
X29069499Y-46302000D01*
X39734000Y-42472400D02*
X38967200Y-43239200D01*
X20113200Y-56675800D02*
X20113200Y-46880000D01*
X20113200Y-46880000D02*
X21376200Y-45617000D01*
X38967200Y-43239200D02*
X38967200Y-60689000D01*
X29069499Y-46302000D02*
X29677000Y-46302000D01*
X41621999Y-42472400D02*
X39734000Y-42472400D01*
X42666999Y-41427400D02*
X41621999Y-42472400D01*
X21376200Y-45617000D02*
X28384499Y-45617000D01*
%TO.N,/D0-*%
X19663200Y-46693600D02*
X21189800Y-45167000D01*
X39417200Y-60875400D02*
X37964600Y-62328000D01*
X21189800Y-45167000D02*
X28384499Y-45167000D01*
X42666999Y-43967400D02*
X41621999Y-42922400D01*
X39417200Y-43425600D02*
X39417200Y-60875400D01*
X37964600Y-62328000D02*
X25129000Y-62328000D01*
X41621999Y-42922400D02*
X39920400Y-42922400D01*
X39920400Y-42922400D02*
X39417200Y-43425600D01*
X29069499Y-44482000D02*
X29677000Y-44482000D01*
X19663200Y-56862200D02*
X19663200Y-46693600D01*
X43942000Y-43967400D02*
X42666999Y-43967400D01*
X28384499Y-45167000D02*
X29069499Y-44482000D01*
X25129000Y-62328000D02*
X19663200Y-56862200D01*
%TO.N,/D1+*%
X32812400Y-43967400D02*
X32807000Y-43962000D01*
X34747200Y-43967400D02*
X32812400Y-43967400D01*
X41402000Y-43967400D02*
X40386000Y-43967400D01*
X43942000Y-46507400D02*
X41402000Y-43967400D01*
%TO.N,/D1-*%
X43942000Y-49047400D02*
X41427400Y-46532800D01*
X35360200Y-42142000D02*
X32812000Y-42142000D01*
X36042600Y-44678600D02*
X36042600Y-42824400D01*
X36042600Y-42824400D02*
X35360200Y-42142000D01*
X41427400Y-46532800D02*
X41427400Y-45770800D01*
%TO.N,/D2+*%
X43942000Y-51587400D02*
X42897001Y-52632399D01*
X21911800Y-43738800D02*
X21611800Y-43438800D01*
X21611800Y-42394961D02*
X22049761Y-41957000D01*
X28384499Y-41957000D02*
X29069499Y-42642000D01*
X21611800Y-43438800D02*
X21611800Y-42394961D01*
X41066999Y-52632399D02*
X40767000Y-52332400D01*
X29069499Y-42642000D02*
X29677000Y-42642000D01*
X22049761Y-41957000D02*
X28384499Y-41957000D01*
X42897001Y-52632399D02*
X41066999Y-52632399D01*
%TO.N,/D2-*%
X41066999Y-53082401D02*
X40767000Y-53382400D01*
X21161800Y-42208561D02*
X21863361Y-41507000D01*
X28384499Y-41507000D02*
X29069499Y-40822000D01*
X21161800Y-43438800D02*
X21161800Y-42208561D01*
X20861800Y-43738800D02*
X21161800Y-43438800D01*
X29069499Y-40822000D02*
X29677000Y-40822000D01*
X21863361Y-41507000D02*
X28384499Y-41507000D01*
X42897001Y-53082401D02*
X41066999Y-53082401D01*
X43942000Y-54127400D02*
X42897001Y-53082401D01*
%TO.N,/D3-*%
X40346003Y-48879200D02*
X40346003Y-49200198D01*
X40116700Y-46329600D02*
X40067000Y-46379300D01*
X40206502Y-49339699D02*
X40206501Y-49339699D01*
X40067000Y-49541940D02*
X40067000Y-53994481D01*
X41675535Y-54613067D02*
X40685586Y-55603016D01*
X40067000Y-53994481D02*
X40544163Y-54471645D01*
X41109851Y-56027282D02*
X41392693Y-55744439D01*
X40968427Y-54471645D02*
X41251270Y-54188803D01*
X41251270Y-54188803D02*
X41251270Y-54188802D01*
X33909000Y-41399000D02*
X32812000Y-40302000D01*
X40067000Y-49479200D02*
X40067000Y-49541940D01*
X40685586Y-55603016D02*
X40685586Y-55603017D01*
X41392693Y-55744439D02*
X41392694Y-55744439D01*
X41816959Y-55744440D02*
X42739919Y-56667400D01*
X40067000Y-46379300D02*
X40067000Y-48600198D01*
X40206501Y-48739699D02*
X40206502Y-48739699D01*
X42739919Y-56667400D02*
X43942000Y-56667400D01*
X33909000Y-41442500D02*
X33909000Y-41399000D01*
X41675500Y-54613032D02*
G75*
G03*
X41675535Y-54188803I-212100J212132D01*
G01*
X40206501Y-49339700D02*
G75*
G03*
X40067000Y-49479200I-1J-139500D01*
G01*
X40067001Y-48600198D02*
G75*
G03*
X40206501Y-48739699I139499J-2D01*
G01*
X40544164Y-54471644D02*
G75*
G03*
X40968426Y-54471644I212131J212131D01*
G01*
X41675533Y-54188805D02*
G75*
G03*
X41251270Y-54188802I-212133J-212095D01*
G01*
X41816933Y-55744466D02*
G75*
G03*
X41392694Y-55744439I-212133J-212134D01*
G01*
X40685538Y-55602969D02*
G75*
G03*
X40685588Y-56027281I212162J-212131D01*
G01*
X40685588Y-56027281D02*
G75*
G03*
X41109850Y-56027281I212131J212131D01*
G01*
X40346001Y-48879200D02*
G75*
G03*
X40206502Y-48739699I-139501J0D01*
G01*
X40206502Y-49339703D02*
G75*
G03*
X40346003Y-49200198I-2J139503D01*
G01*
%TO.N,/D3+*%
X33112000Y-38482000D02*
X32812000Y-38482000D01*
X37160200Y-42530200D02*
X33112000Y-38482000D01*
X42138600Y-59207400D02*
X40284400Y-57353200D01*
X37160200Y-56438800D02*
X37160200Y-42530200D01*
X43942000Y-59207400D02*
X42138600Y-59207400D01*
X38074600Y-57353200D02*
X37160200Y-56438800D01*
%TO.N,/D4+*%
X26139900Y-38294500D02*
X28386999Y-38294500D01*
X25454400Y-35987000D02*
X25454400Y-37609000D01*
X25454400Y-37609000D02*
X26139900Y-38294500D01*
X29069499Y-38977000D02*
X29677000Y-38977000D01*
X42897001Y-20471999D02*
X39873199Y-20471999D01*
X25154400Y-35687000D02*
X25454400Y-35987000D01*
X39873199Y-20471999D02*
X39573200Y-20172000D01*
X28386999Y-38294500D02*
X29069499Y-38977000D01*
X43942000Y-19427000D02*
X42897001Y-20471999D01*
%TO.N,/D4-*%
X42897001Y-20922001D02*
X39873199Y-20922001D01*
X39873199Y-20922001D02*
X39573200Y-21222000D01*
X29069499Y-37162000D02*
X29677000Y-37162000D01*
X26204400Y-35687000D02*
X25904400Y-35987000D01*
X26326300Y-37844500D02*
X28386999Y-37844500D01*
X25904400Y-37422600D02*
X26326300Y-37844500D01*
X28386999Y-37844500D02*
X29069499Y-37162000D01*
X25904400Y-35987000D02*
X25904400Y-37422600D01*
X43942000Y-21967000D02*
X42897001Y-20922001D01*
%TO.N,/D5-*%
X39522400Y-28244800D02*
X40204200Y-28244800D01*
X35941000Y-36626800D02*
X35920800Y-36647000D01*
X40204200Y-28244800D02*
X43942000Y-24507000D01*
X35920800Y-36647000D02*
X32812000Y-36647000D01*
%TO.N,/D5+*%
X43942000Y-27047000D02*
X41967686Y-27047000D01*
X40501743Y-29043457D02*
X40487600Y-29057600D01*
X36339200Y-35345841D02*
X36339200Y-35132000D01*
X40501743Y-28512943D02*
X40501743Y-29043457D01*
X35245699Y-34619001D02*
X35632701Y-34619001D01*
X35739200Y-34725500D02*
X35739200Y-34832000D01*
X35139200Y-35132000D02*
X35139200Y-34725500D01*
X34539200Y-35132000D02*
X34539200Y-35345847D01*
X37253200Y-34832000D02*
X38328600Y-33756600D01*
X36639200Y-34832000D02*
X37253200Y-34832000D01*
X32812000Y-34832000D02*
X34239200Y-34832000D01*
X35739200Y-34832000D02*
X35739200Y-35345841D01*
X35139200Y-35345847D02*
X35139200Y-35132000D01*
X41967686Y-27047000D02*
X40501743Y-28512943D01*
X35245699Y-34619000D02*
G75*
G03*
X35139200Y-34725500I1J-106500D01*
G01*
X35739199Y-34725500D02*
G75*
G03*
X35632701Y-34619001I-106499J0D01*
G01*
X34539200Y-35132000D02*
G75*
G03*
X34239200Y-34832000I-300000J0D01*
G01*
X36039200Y-35645800D02*
G75*
G03*
X36339200Y-35345841I0J300000D01*
G01*
X34839200Y-35645800D02*
G75*
G03*
X35139200Y-35345847I0J300000D01*
G01*
X36639200Y-34832000D02*
G75*
G03*
X36339200Y-35132000I0J-300000D01*
G01*
X35739159Y-35345841D02*
G75*
G03*
X36039200Y-35645841I300041J41D01*
G01*
X34539153Y-35345847D02*
G75*
G03*
X34839200Y-35645847I300047J47D01*
G01*
%TO.N,/D6-*%
X38528200Y-28786600D02*
X38528200Y-22385800D01*
X27034000Y-19333000D02*
X23727199Y-22639801D01*
X23427200Y-31775400D02*
X23727200Y-32075400D01*
X42897001Y-30631999D02*
X40373599Y-30631999D01*
X23727200Y-32075400D02*
X23727200Y-33660990D01*
X29069499Y-35322000D02*
X29677000Y-35322000D01*
X28384499Y-34637000D02*
X29069499Y-35322000D01*
X24703210Y-34637000D02*
X28384499Y-34637000D01*
X23727199Y-22639801D02*
X23727199Y-24846001D01*
X35475400Y-19333000D02*
X27034000Y-19333000D01*
X23727199Y-24846001D02*
X23427200Y-25146000D01*
X40373599Y-30631999D02*
X38528200Y-28786600D01*
X23727200Y-33660990D02*
X24703210Y-34637000D01*
X38528200Y-22385800D02*
X35475400Y-19333000D01*
X43942000Y-29587000D02*
X42897001Y-30631999D01*
%TO.N,/D6+*%
X42897001Y-31082001D02*
X40187201Y-31082001D01*
X38078200Y-28973000D02*
X38078200Y-22572200D01*
X24177201Y-22826199D02*
X24177201Y-24846001D01*
X24177200Y-33474590D02*
X24889610Y-34187000D01*
X29069499Y-33502000D02*
X29677000Y-33502000D01*
X28384499Y-34187000D02*
X29069499Y-33502000D01*
X38078200Y-22572200D02*
X35289000Y-19783000D01*
X24177201Y-24846001D02*
X24477200Y-25146000D01*
X27220400Y-19783000D02*
X24177201Y-22826199D01*
X24177200Y-32075400D02*
X24177200Y-33474590D01*
X24889610Y-34187000D02*
X28384499Y-34187000D01*
X35289000Y-19783000D02*
X27220400Y-19783000D01*
X40187201Y-31082001D02*
X38078200Y-28973000D01*
X43942000Y-32127000D02*
X42897001Y-31082001D01*
X24477200Y-31775400D02*
X24177200Y-32075400D01*
%TO.N,/D7-*%
X35050600Y-33680439D02*
X35050600Y-32992000D01*
X34450600Y-32303552D02*
X34450600Y-32692000D01*
X41323200Y-32992000D02*
X36550600Y-32992000D01*
X41325800Y-32994600D02*
X41323200Y-32992000D01*
X33692152Y-32992000D02*
X32807000Y-32992000D01*
X35050600Y-32992000D02*
X35050600Y-32303552D01*
X42269600Y-32994600D02*
X41325800Y-32994600D01*
X34150600Y-32992000D02*
X33692152Y-32992000D01*
X36250600Y-32692000D02*
X36250600Y-32303561D01*
X35650600Y-32303561D02*
X35650600Y-32692000D01*
X43942000Y-34667000D02*
X42269600Y-32994600D01*
X35650600Y-32692000D02*
X35650600Y-33680439D01*
X35050648Y-32303552D02*
G75*
G03*
X34750600Y-32003552I-300048J-48D01*
G01*
X35950600Y-32003600D02*
G75*
G03*
X35650600Y-32303561I0J-300000D01*
G01*
X35350600Y-33980400D02*
G75*
G03*
X35650600Y-33680439I0J300000D01*
G01*
X34750600Y-32003600D02*
G75*
G03*
X34450600Y-32303552I0J-300000D01*
G01*
X35050561Y-33680439D02*
G75*
G03*
X35350600Y-33980439I300039J39D01*
G01*
X34150600Y-32992000D02*
G75*
G03*
X34450600Y-32692000I0J300000D01*
G01*
X36250600Y-32692000D02*
G75*
G03*
X36550600Y-32992000I300000J0D01*
G01*
X36250639Y-32303561D02*
G75*
G03*
X35950600Y-32003561I-300039J-39D01*
G01*
%TO.N,/D7+*%
X40542400Y-33807400D02*
X40538400Y-33807400D01*
X39039800Y-32292500D02*
X37919300Y-31172000D01*
X37919300Y-31172000D02*
X32812000Y-31172000D01*
X43942000Y-37207000D02*
X40542400Y-33807400D01*
%TO.N,/CLK+*%
X29677000Y-31667000D02*
X29069499Y-31667000D01*
X23402001Y-30197000D02*
X22357001Y-31242000D01*
X24494000Y-30197000D02*
X23402001Y-30197000D01*
X22357001Y-31242000D02*
X21082000Y-31242000D01*
X25279000Y-30982000D02*
X24494000Y-30197000D01*
X28384499Y-30982000D02*
X25279000Y-30982000D01*
X29069499Y-31667000D02*
X28384499Y-30982000D01*
%TO.N,/CLK-*%
X25465400Y-30532000D02*
X24680400Y-29747000D01*
X22357001Y-28702000D02*
X21082000Y-28702000D01*
X29069499Y-29847000D02*
X28384499Y-30532000D01*
X29677000Y-29847000D02*
X29069499Y-29847000D01*
X24680400Y-29747000D02*
X23402001Y-29747000D01*
X28384499Y-30532000D02*
X25465400Y-30532000D01*
X23402001Y-29747000D02*
X22357001Y-28702000D01*
D16*
%TO.N,/GND1*%
X29679800Y-45389800D02*
X29677000Y-45387000D01*
X41402000Y-66802000D02*
X41402000Y-70866000D01*
X30759400Y-45389800D02*
X29679800Y-45389800D01*
%TO.N,/GND3*%
X29677200Y-41732200D02*
X29677000Y-41732000D01*
X36322000Y-66802000D02*
X36322000Y-70866000D01*
X30759400Y-41732200D02*
X29677200Y-41732200D01*
%TO.N,/GND5*%
X30759400Y-38074600D02*
X29679600Y-38074600D01*
X31242000Y-66802000D02*
X31242000Y-70866000D01*
X29679600Y-38074600D02*
X29677000Y-38072000D01*
%TO.N,/GND7*%
X26162000Y-66802000D02*
X26162000Y-70866000D01*
X30749400Y-34407000D02*
X30759400Y-34417000D01*
X29677000Y-34407000D02*
X30749400Y-34407000D01*
%TO.N,/GND9*%
X21082000Y-66802000D02*
X21082000Y-70866000D01*
X30757000Y-30757000D02*
X30759400Y-30759400D01*
X29677000Y-30757000D02*
X30757000Y-30757000D01*
%TO.N,/GND2*%
X33533600Y-45948600D02*
X35204400Y-45948600D01*
X31724600Y-44139600D02*
X33533600Y-45948600D01*
X32806000Y-43053000D02*
X32807000Y-43052000D01*
X38862000Y-66802000D02*
X38862000Y-70866000D01*
X36735200Y-57055200D02*
X38074600Y-58394600D01*
X31724600Y-43053000D02*
X32806000Y-43053000D01*
X40233600Y-65430400D02*
X38862000Y-66802000D01*
X35204400Y-45948600D02*
X36735200Y-47479400D01*
X38074600Y-58394600D02*
X38074600Y-58420000D01*
X36735200Y-47479400D02*
X36735200Y-57055200D01*
X40233600Y-60579000D02*
X40233600Y-65430400D01*
X31724600Y-43053000D02*
X31724600Y-44139600D01*
%TO.N,/GND4*%
X24907000Y-62753000D02*
X19238200Y-57084200D01*
X30988000Y-40132000D02*
X31724600Y-39395400D01*
X19238200Y-57084200D02*
X19238200Y-43449000D01*
X33782000Y-66802000D02*
X33782000Y-70866000D01*
X32808600Y-39395400D02*
X32812000Y-39392000D01*
X33782000Y-66802000D02*
X29733000Y-62753000D01*
X31724600Y-39395400D02*
X32808600Y-39395400D01*
X22555200Y-40132000D02*
X30988000Y-40132000D01*
X29733000Y-62753000D02*
X24907000Y-62753000D01*
X19238200Y-43449000D02*
X22555200Y-40132000D01*
%TO.N,/GND6*%
X28702000Y-66802000D02*
X28319604Y-66802000D01*
X18788200Y-57270596D02*
X18788200Y-43262604D01*
X28702000Y-66802000D02*
X28702000Y-70866000D01*
X28319604Y-66802000D02*
X18788200Y-57270596D01*
X31724600Y-35737800D02*
X32807800Y-35737800D01*
X18788200Y-43262604D02*
X22643304Y-39407500D01*
X32807800Y-35737800D02*
X32812000Y-35742000D01*
X22643304Y-39407500D02*
X28244800Y-39407500D01*
%TO.N,/GND8*%
X19685000Y-27279600D02*
X18338200Y-28626400D01*
X18338200Y-61518200D02*
X23622000Y-66802000D01*
X28304905Y-27279600D02*
X19685000Y-27279600D01*
X31699200Y-30673895D02*
X28304905Y-27279600D01*
X31699200Y-32080200D02*
X31699200Y-30673895D01*
X31699200Y-32080200D02*
X32805200Y-32080200D01*
X23622000Y-66802000D02*
X23622000Y-70866000D01*
X18338200Y-28626400D02*
X18338200Y-61518200D01*
X32805200Y-32080200D02*
X32807000Y-32082000D01*
%TO.N,/GNDTIE*%
X21082000Y-77596000D02*
X41402000Y-77596000D01*
%TD*%
M02*
