%TF.GenerationSoftware,KiCad,Pcbnew,7.0.5-94-gd77180d9b5*%
%TF.CreationDate,2023-06-13T21:26:35-05:00*%
%TF.ProjectId,Tek P6860 Adapter v.2,54656b20-5036-4383-9630-204164617074,rev?*%
%TF.SameCoordinates,Original*%
%TF.FileFunction,Copper,L2,Bot*%
%TF.FilePolarity,Positive*%
%FSLAX46Y46*%
G04 Gerber Fmt 4.6, Leading zero omitted, Abs format (unit mm)*
G04 Created by KiCad (PCBNEW 7.0.5-94-gd77180d9b5) date 2023-06-13 21:26:35*
%MOMM*%
%LPD*%
G01*
G04 APERTURE LIST*
%TA.AperFunction,ComponentPad*%
%ADD10R,1.700000X1.700000*%
%TD*%
%TA.AperFunction,ComponentPad*%
%ADD11O,1.700000X1.700000*%
%TD*%
%TA.AperFunction,SMDPad,CuDef*%
%ADD12R,0.950000X0.550000*%
%TD*%
%TA.AperFunction,ViaPad*%
%ADD13C,0.800000*%
%TD*%
%TA.AperFunction,Conductor*%
%ADD14C,0.200000*%
%TD*%
%TA.AperFunction,Conductor*%
%ADD15C,0.250000*%
%TD*%
G04 APERTURE END LIST*
D10*
%TO.P,J3,1,Pin_1*%
%TO.N,/CLK+*%
X21082000Y-31242000D03*
D11*
%TO.P,J3,2,Pin_2*%
%TO.N,/CLK-*%
X21082000Y-28702000D03*
%TD*%
D12*
%TO.P,J4,A2,GND*%
%TO.N,/GND1*%
X29677000Y-45387000D03*
%TO.P,J4,A5,GND*%
%TO.N,/GND3*%
X29677000Y-41732000D03*
%TO.P,J4,A8,GND*%
%TO.N,/GND5*%
X29677000Y-38072000D03*
%TO.P,J4,A11,GND*%
%TO.N,/GND7*%
X29677000Y-34407000D03*
%TO.P,J4,A14,GND*%
%TO.N,/GND9*%
X29677000Y-30757000D03*
%TO.P,J4,B2,GND*%
%TO.N,/GND2*%
X32807000Y-43052000D03*
%TO.P,J4,B5,GND*%
%TO.N,/GND4*%
X32812000Y-39392000D03*
%TO.P,J4,B8,GND*%
%TO.N,/GND6*%
X32812000Y-35742000D03*
%TO.P,J4,B11,GND*%
%TO.N,/GND8*%
X32807000Y-32082000D03*
%TD*%
D10*
%TO.P,J5,1,Pin_1*%
%TO.N,/GND1*%
X41402000Y-66802000D03*
D11*
%TO.P,J5,2,Pin_2*%
%TO.N,/GND2*%
X38862000Y-66802000D03*
%TO.P,J5,3,Pin_3*%
%TO.N,/GND3*%
X36322000Y-66802000D03*
%TO.P,J5,4,Pin_4*%
%TO.N,/GND4*%
X33782000Y-66802000D03*
%TO.P,J5,5,Pin_5*%
%TO.N,/GND5*%
X31242000Y-66802000D03*
%TO.P,J5,6,Pin_6*%
%TO.N,/GND6*%
X28702000Y-66802000D03*
%TO.P,J5,7,Pin_7*%
%TO.N,/GND7*%
X26162000Y-66802000D03*
%TO.P,J5,8,Pin_8*%
%TO.N,/GND8*%
X23622000Y-66802000D03*
%TO.P,J5,9,Pin_9*%
%TO.N,/GND9*%
X21082000Y-66802000D03*
%TD*%
D10*
%TO.P,J2,1,Pin_1*%
%TO.N,/D4+*%
X43942000Y-19427000D03*
D11*
%TO.P,J2,2,Pin_2*%
%TO.N,/D4-*%
X43942000Y-21967000D03*
%TO.P,J2,3,Pin_3*%
%TO.N,/D5-*%
X43942000Y-24507000D03*
%TO.P,J2,4,Pin_4*%
%TO.N,/D5+*%
X43942000Y-27047000D03*
%TO.P,J2,5,Pin_5*%
%TO.N,/D6-*%
X43942000Y-29587000D03*
%TO.P,J2,6,Pin_6*%
%TO.N,/D6+*%
X43942000Y-32127000D03*
%TO.P,J2,7,Pin_7*%
%TO.N,/D7-*%
X43942000Y-34667000D03*
%TO.P,J2,8,Pin_8*%
%TO.N,/D7+*%
X43942000Y-37207000D03*
%TD*%
D10*
%TO.P,J1,1,Pin_1*%
%TO.N,/D0+*%
X43942000Y-41427400D03*
D11*
%TO.P,J1,2,Pin_2*%
%TO.N,/D0-*%
X43942000Y-43967400D03*
%TO.P,J1,3,Pin_3*%
%TO.N,/D1+*%
X43942000Y-46507400D03*
%TO.P,J1,4,Pin_4*%
%TO.N,/D1-*%
X43942000Y-49047400D03*
%TO.P,J1,5,Pin_5*%
%TO.N,/D2+*%
X43942000Y-51587400D03*
%TO.P,J1,6,Pin_6*%
%TO.N,/D2-*%
X43942000Y-54127400D03*
%TO.P,J1,7,Pin_7*%
%TO.N,/D3-*%
X43942000Y-56667400D03*
%TO.P,J1,8,Pin_8*%
%TO.N,/D3+*%
X43942000Y-59207400D03*
%TD*%
D13*
%TO.N,/D1+*%
X40386000Y-43967400D03*
X34747200Y-43967400D03*
%TO.N,/D1-*%
X41427400Y-45770800D03*
X36042600Y-44678600D03*
%TO.N,/D2+*%
X40767000Y-52332400D03*
X21911800Y-43738800D03*
%TO.N,/D2-*%
X40767000Y-53382400D03*
X20861800Y-43738800D03*
%TO.N,/D3-*%
X33909000Y-41442500D03*
X40116700Y-46329600D03*
%TO.N,/D3+*%
X40284400Y-57353200D03*
X38074600Y-57353200D03*
%TO.N,/D4+*%
X25154400Y-35687000D03*
X39573200Y-20172000D03*
%TO.N,/D4-*%
X39573200Y-21222000D03*
X26204400Y-35687000D03*
%TO.N,/D5-*%
X35941000Y-36626800D03*
X39522400Y-28244800D03*
%TO.N,/D5+*%
X38328600Y-33756600D03*
X40487600Y-29057600D03*
%TO.N,/D6-*%
X23427200Y-31775400D03*
X23427200Y-25146000D03*
%TO.N,/D6+*%
X24477200Y-31775400D03*
X24477200Y-25146000D03*
%TO.N,/D7+*%
X39039800Y-32292500D03*
X40538400Y-33807400D03*
%TO.N,/GND1*%
X30759400Y-45389800D03*
%TO.N,/GND3*%
X30759400Y-41732200D03*
%TO.N,/GND5*%
X30759400Y-38074600D03*
%TO.N,/GND7*%
X30759400Y-34417000D03*
%TO.N,/GND9*%
X30759400Y-30759400D03*
%TO.N,/GND2*%
X40233600Y-60579000D03*
X31724600Y-43053000D03*
X38074600Y-58420000D03*
%TO.N,/GND4*%
X31724600Y-39395400D03*
%TO.N,/GND6*%
X31724600Y-35737800D03*
X28244800Y-39407500D03*
%TO.N,/GND8*%
X31699200Y-32080200D03*
%TD*%
D14*
%TO.N,/D1+*%
X39234800Y-43667400D02*
X39234800Y-43523114D01*
X38034800Y-43667400D02*
X38034800Y-43434540D01*
X38534800Y-44167400D02*
X38134800Y-44167400D01*
X40386000Y-43967400D02*
X39534800Y-43967400D01*
X38634800Y-43523114D02*
X38634800Y-43967400D01*
X36015550Y-43406949D02*
X35976000Y-43406949D01*
X35376000Y-43967400D02*
X34747200Y-43967400D01*
X37134800Y-43967400D02*
X36703000Y-43967400D01*
X35415550Y-43967400D02*
X35376000Y-43967400D01*
X36703000Y-43967400D02*
X36576000Y-43967400D01*
X37434800Y-43434540D02*
X37434800Y-43667400D01*
X38634800Y-43967400D02*
X38634800Y-44067400D01*
X36295775Y-43687175D02*
X36295775Y-43687174D01*
X38034800Y-44067400D02*
X38034800Y-43667400D01*
X35695775Y-43687174D02*
X35695775Y-43687175D01*
X38934800Y-43223100D02*
G75*
G03*
X38634800Y-43523114I0J-300000D01*
G01*
X39234786Y-43523114D02*
G75*
G03*
X38934800Y-43223114I-299986J14D01*
G01*
X38534800Y-44167400D02*
G75*
G03*
X38634800Y-44067400I0J100000D01*
G01*
X35415550Y-43967375D02*
G75*
G03*
X35695775Y-43687175I50J280175D01*
G01*
X35976000Y-43406975D02*
G75*
G03*
X35695775Y-43687174I0J-280225D01*
G01*
X37134800Y-43967400D02*
G75*
G03*
X37434800Y-43667400I0J300000D01*
G01*
X37734800Y-43134500D02*
G75*
G03*
X37434800Y-43434540I0J-300000D01*
G01*
X38034800Y-44067400D02*
G75*
G03*
X38134800Y-44167400I100000J0D01*
G01*
X36295800Y-43687175D02*
G75*
G03*
X36576000Y-43967400I280200J-25D01*
G01*
X39234800Y-43667400D02*
G75*
G03*
X39534800Y-43967400I300000J0D01*
G01*
X36295851Y-43687174D02*
G75*
G03*
X36015550Y-43406949I-280251J-26D01*
G01*
X38034760Y-43434540D02*
G75*
G03*
X37734800Y-43134540I-299960J40D01*
G01*
%TO.N,/D1-*%
X41427400Y-45770800D02*
X40335200Y-44678600D01*
X40335200Y-44678600D02*
X36042600Y-44678600D01*
%TO.N,/D2+*%
X21611801Y-55685201D02*
X21611801Y-44038799D01*
X36681200Y-54847000D02*
X36681200Y-59469800D01*
X26407600Y-60481000D02*
X21611801Y-55685201D01*
X40467001Y-52632399D02*
X38895801Y-52632399D01*
X35670000Y-60481000D02*
X26407600Y-60481000D01*
X40767000Y-52332400D02*
X40467001Y-52632399D01*
X21611801Y-44038799D02*
X21911800Y-43738800D01*
X38895801Y-52632399D02*
X36681200Y-54847000D01*
X36681200Y-59469800D02*
X35670000Y-60481000D01*
%TO.N,/D2-*%
X40767000Y-53382400D02*
X40467001Y-53082401D01*
X35856400Y-60931000D02*
X26221200Y-60931000D01*
X37131200Y-55033400D02*
X37131200Y-59656200D01*
X37131200Y-59656200D02*
X35856400Y-60931000D01*
X26221200Y-60931000D02*
X21161799Y-55871599D01*
X40467001Y-53082401D02*
X39082199Y-53082401D01*
X21161799Y-44038799D02*
X20861800Y-43738800D01*
X39082199Y-53082401D02*
X37131200Y-55033400D01*
X21161799Y-55871599D02*
X21161799Y-44038799D01*
%TO.N,/D3-*%
X40116700Y-46329600D02*
X39165700Y-45378600D01*
X33909000Y-44500800D02*
X33909000Y-41442500D01*
X39165700Y-45378600D02*
X34786800Y-45378600D01*
X34786800Y-45378600D02*
X33909000Y-44500800D01*
%TO.N,/D3+*%
X40284400Y-57353200D02*
X38074600Y-57353200D01*
%TO.N,/D4+*%
X27469801Y-20471999D02*
X25454400Y-22487400D01*
X25454400Y-22487400D02*
X25454399Y-35387001D01*
X39273201Y-20471999D02*
X27469801Y-20471999D01*
X39573200Y-20172000D02*
X39273201Y-20471999D01*
X25454399Y-35387001D02*
X25154400Y-35687000D01*
%TO.N,/D4-*%
X39273201Y-20922001D02*
X39573200Y-21222000D01*
X27656199Y-20922001D02*
X39273201Y-20922001D01*
X26604400Y-25109600D02*
X26204400Y-25109600D01*
X26204400Y-35687000D02*
X25904401Y-35387001D01*
X26204400Y-25709600D02*
X26604400Y-25709600D01*
X25904400Y-22673800D02*
X27656199Y-20922001D01*
X25904400Y-24809600D02*
X25904400Y-24332064D01*
X25904401Y-35387001D02*
X25904400Y-26009600D01*
X25904400Y-24332064D02*
X25904400Y-22673800D01*
X26204400Y-25709600D02*
G75*
G03*
X25904400Y-26009600I0J-300000D01*
G01*
X26904400Y-25409600D02*
G75*
G03*
X26604400Y-25109600I-300000J0D01*
G01*
X25904400Y-24809600D02*
G75*
G03*
X26204400Y-25109600I300000J0D01*
G01*
X26604400Y-25709600D02*
G75*
G03*
X26904400Y-25409600I0J300000D01*
G01*
%TO.N,/D5-*%
X36880800Y-34366200D02*
X36880800Y-35687000D01*
X39522400Y-28244800D02*
X36880800Y-30886400D01*
X36880800Y-30886400D02*
X36880800Y-34366200D01*
X36880800Y-35687000D02*
X35941000Y-36626800D01*
%TO.N,/D5+*%
X38328600Y-31216600D02*
X38328600Y-33756600D01*
X40487600Y-29057600D02*
X38328600Y-31216600D01*
%TO.N,/D6-*%
X23727199Y-25445999D02*
X23727199Y-31475401D01*
X23727199Y-31475401D02*
X23427200Y-31775400D01*
X23427200Y-25146000D02*
X23727199Y-25445999D01*
%TO.N,/D6+*%
X24477201Y-27071600D02*
X24507531Y-27071600D01*
X24177201Y-29171600D02*
X24177201Y-29760839D01*
X24177201Y-25445999D02*
X24177201Y-26771600D01*
X24507511Y-28871600D02*
X24477201Y-28871600D01*
X24177201Y-29760839D02*
X24177201Y-31475401D01*
X24507531Y-27671600D02*
X24477201Y-27671600D01*
X24477201Y-28271600D02*
X24507511Y-28271600D01*
X24177201Y-31475401D02*
X24477200Y-31775400D01*
X24477200Y-25146000D02*
X24177201Y-25445999D01*
X24507511Y-28871611D02*
G75*
G03*
X24807511Y-28571600I-11J300011D01*
G01*
X24807500Y-27371600D02*
G75*
G03*
X24507531Y-27071600I-300000J0D01*
G01*
X24477201Y-27671601D02*
G75*
G03*
X24177201Y-27971600I-1J-299999D01*
G01*
X24477201Y-28871601D02*
G75*
G03*
X24177201Y-29171600I-1J-299999D01*
G01*
X24507531Y-27671631D02*
G75*
G03*
X24807531Y-27371600I-31J300031D01*
G01*
X24177200Y-26771600D02*
G75*
G03*
X24477201Y-27071600I300000J0D01*
G01*
X24177200Y-27971600D02*
G75*
G03*
X24477201Y-28271600I300000J0D01*
G01*
X24807500Y-28571600D02*
G75*
G03*
X24507511Y-28271600I-300000J0D01*
G01*
%TO.N,/D7+*%
X39039800Y-32308800D02*
X39039800Y-32292500D01*
X40538400Y-33807400D02*
X39039800Y-32308800D01*
D15*
%TO.N,/GND1*%
X25671192Y-62625400D02*
X37225400Y-62625400D01*
X37225400Y-62625400D02*
X41402000Y-66802000D01*
X29677000Y-45387000D02*
X30756600Y-45387000D01*
X22192200Y-42182000D02*
X19540000Y-42182000D01*
X29677000Y-45387000D02*
X25397200Y-45387000D01*
X19540000Y-42182000D02*
X19249800Y-42472200D01*
X19249800Y-56204008D02*
X25671192Y-62625400D01*
X25397200Y-45387000D02*
X22192200Y-42182000D01*
X19249800Y-42472200D02*
X19249800Y-56204008D01*
X30756600Y-45387000D02*
X30759400Y-45389800D01*
%TO.N,/GND3*%
X18799800Y-56390404D02*
X25484796Y-63075400D01*
X19105188Y-41732000D02*
X18799800Y-42037388D01*
X30759200Y-41732000D02*
X30759400Y-41732200D01*
X29677000Y-41732000D02*
X19105188Y-41732000D01*
X29677000Y-41732000D02*
X30759200Y-41732000D01*
X25484796Y-63075400D02*
X32595400Y-63075400D01*
X32595400Y-63075400D02*
X36322000Y-66802000D01*
X18799800Y-42037388D02*
X18799800Y-56390404D01*
%TO.N,/GND5*%
X29677000Y-38072000D02*
X22128792Y-38072000D01*
X29677000Y-38072000D02*
X30756800Y-38072000D01*
X25298400Y-63525400D02*
X27965400Y-63525400D01*
X18349800Y-56576800D02*
X25298400Y-63525400D01*
X27965400Y-63525400D02*
X31242000Y-66802000D01*
X18349800Y-41850992D02*
X18349800Y-56576800D01*
X30756800Y-38072000D02*
X30759400Y-38074600D01*
X22128792Y-38072000D02*
X18349800Y-41850992D01*
%TO.N,/GND7*%
X29677000Y-34407000D02*
X29192000Y-34407000D01*
X26674600Y-36924400D02*
X22639996Y-36924400D01*
X30749400Y-34407000D02*
X30759400Y-34417000D01*
X17899800Y-58539800D02*
X26162000Y-66802000D01*
X17899800Y-41664596D02*
X17899800Y-58539800D01*
X29677000Y-34407000D02*
X30749400Y-34407000D01*
X22639996Y-36924400D02*
X17899800Y-41664596D01*
X29192000Y-34407000D02*
X26674600Y-36924400D01*
%TO.N,/GND9*%
X26929400Y-35987305D02*
X26442305Y-36474400D01*
X30759400Y-30759400D02*
X29679400Y-30759400D01*
X26442305Y-36474400D02*
X22453600Y-36474400D01*
X22453600Y-36474400D02*
X17449800Y-41478200D01*
X29679400Y-30759400D02*
X29677000Y-30757000D01*
X17449800Y-41478200D02*
X17449800Y-63169800D01*
X29677000Y-30757000D02*
X28952000Y-30757000D01*
X26929400Y-32779600D02*
X26929400Y-35987305D01*
X28952000Y-30757000D02*
X26929400Y-32779600D01*
X17449800Y-63169800D02*
X21082000Y-66802000D01*
%TO.N,/GND2*%
X32807000Y-43052000D02*
X31725600Y-43052000D01*
X31725600Y-43052000D02*
X31724600Y-43053000D01*
X38074600Y-58420000D02*
X40233600Y-60579000D01*
%TO.N,/GND4*%
X31728000Y-39392000D02*
X31724600Y-39395400D01*
X32812000Y-39392000D02*
X31728000Y-39392000D01*
%TO.N,/GND6*%
X31728800Y-35742000D02*
X31724600Y-35737800D01*
X32812000Y-35742000D02*
X31728800Y-35742000D01*
X28244800Y-39407500D02*
X30687195Y-39407500D01*
X30687195Y-39407500D02*
X31724600Y-38370095D01*
X31724600Y-38370095D02*
X31724600Y-35737800D01*
%TO.N,/GND8*%
X31701000Y-32082000D02*
X31699200Y-32080200D01*
X32807000Y-32082000D02*
X31701000Y-32082000D01*
%TD*%
M02*
